<?xml version="1.0" encoding="UTF-8"?>
<svg version="1.1" xmlns="http://www.w3.org/2000/svg" width="500" height="500">
<path d="M0 0 C165 0 330 0 500 0 C500 165 500 330 500 500 C335 500 170 500 0 500 C0 335 0 170 0 0 Z " fill="#D6CECD" transform="translate(0,0)"/>
<path d="M0 0 C18.74418356 -0.12032643 18.74418356 -0.12032643 26.84765625 -0.14648438 C32.33749287 -0.16429071 37.82717683 -0.1851566 43.31689453 -0.22631836 C47.75195085 -0.25935719 52.18684303 -0.27694484 56.62201309 -0.28463173 C58.29856061 -0.29009662 59.97510105 -0.30076281 61.651577 -0.31719017 C70.45439729 -0.39987071 78.99611004 -0.08712704 87.69970703 1.3190918 C88.42181807 1.43408681 89.1439291 1.54908182 89.88792229 1.66756153 C100.71379886 3.60959822 111.56331587 8.85021891 118 18 C126.22747004 32.04031629 129.08910174 44.68712666 125.9375 60.8125 C122.86755276 72.34979009 115.65070383 81.18055993 105.625 87.49609375 C93.45677013 94.06771789 81.47088059 94.40412642 68 94 C69.39506426 97.25042891 70.96783394 99.07371792 73.6875 101.3125 C80.36208349 106.83675447 85.9145246 112.87731171 91 119.875 C92.04766612 121.29334632 93.09583949 122.7113181 94.14453125 124.12890625 C94.63904785 124.80066895 95.13356445 125.47243164 95.64306641 126.16455078 C98.35601291 129.83420386 101.1605757 133.42782104 104 137 C104.68320312 137.86882812 105.36640625 138.73765625 106.0703125 139.6328125 C113.04621426 148.35876627 120.39940805 156.52172142 129.6015625 162.94140625 C130.29378906 163.46541016 130.29378906 163.46541016 131 164 C131 164.33 131 164.66 131 165 C114.61560487 166.36256263 114.61560487 166.36256263 108.828125 163.34765625 C106.29103851 161.04892661 104.15277742 158.66001811 102 156 C101.29488281 155.26523437 100.58976563 154.53046875 99.86328125 153.7734375 C91.58418719 145.12275035 84.57135703 135.220649 77.484375 125.58984375 C72.65697499 119.04922311 67.55569409 112.93658092 62 107 C61.98018066 107.60360352 61.96036133 108.20720703 61.93994141 108.82910156 C60.95765091 137.29924485 55.53043359 160.3838694 34.4375 180.87109375 C6.01845649 205.69221348 -32.45869977 199 -68 199 C-68 144.88 -68 90.76 -68 35 C-6 35 -6 35 0 36 C0 24.12 0 12.24 0 0 Z " fill="#D7CECB" transform="translate(226,149)"/>
<path d="M0 0 C1.8359095 -0.00717545 1.8359095 -0.00717545 3.70890808 -0.01449585 C6.30554484 -0.0179009 8.90222412 -0.00865657 11.4987793 0.01220703 C15.42792681 0.03870812 19.3541507 0.01260723 23.28320312 -0.01953125 C40.77346736 -0.043657 57.85265086 0.79704561 71.46875 13.3203125 C81.26577528 24.01681652 82.32113294 36.37020188 82.04296875 50.24609375 C81.48433427 61.84374463 76.16841562 69.62280835 67.8984375 77.30859375 C57.22546914 86.18400955 44.27722085 87.84231269 30.91796875 87.76171875 C30.01925049 87.7603038 29.12053223 87.75888885 28.19458008 87.75743103 C25.352341 87.75187833 22.51018362 87.73933487 19.66796875 87.7265625 C17.72916781 87.72154138 15.79036563 87.71697955 13.8515625 87.71289062 C9.12366692 87.70192444 4.39583164 87.68469294 -0.33203125 87.6640625 C-0.33203125 88.6540625 -0.33203125 89.6440625 -0.33203125 90.6640625 C4.94796875 90.6640625 10.22796875 90.6640625 15.66796875 90.6640625 C20.18763429 113.26239019 18.59017147 134.92988632 8.66796875 155.7890625 C8.1884375 156.81193359 8.1884375 156.81193359 7.69921875 157.85546875 C6.10705926 160.94348776 5.28038233 162.45702495 1.91796875 163.59375 C1.17546875 163.61695313 0.43296875 163.64015625 -0.33203125 163.6640625 C-0.33203125 164.6540625 -0.33203125 165.6440625 -0.33203125 166.6640625 C-3.30203125 166.6640625 -6.27203125 166.6640625 -9.33203125 166.6640625 C-9.33203125 168.3140625 -9.33203125 169.9640625 -9.33203125 171.6640625 C-8.34203125 171.6640625 -7.35203125 171.6640625 -6.33203125 171.6640625 C-6.66203125 172.6540625 -6.99203125 173.6440625 -7.33203125 174.6640625 C-8.32203125 174.6640625 -9.31203125 174.6640625 -10.33203125 174.6640625 C-10.33203125 174.0040625 -10.33203125 173.3440625 -10.33203125 172.6640625 C-10.99203125 172.3340625 -11.65203125 172.0040625 -12.33203125 171.6640625 C-11.67203125 171.6640625 -11.01203125 171.6640625 -10.33203125 171.6640625 C-10.33203125 171.0040625 -10.33203125 170.3440625 -10.33203125 169.6640625 C-11.32203125 169.6640625 -12.31203125 169.6640625 -13.33203125 169.6640625 C-13.33203125 169.0040625 -13.33203125 168.3440625 -13.33203125 167.6640625 C-14.32203125 167.6640625 -15.31203125 167.6640625 -16.33203125 167.6640625 C-16.43515625 167.0246875 -16.53828125 166.3853125 -16.64453125 165.7265625 C-16.87140625 165.0459375 -17.09828125 164.3653125 -17.33203125 163.6640625 C-18.32203125 163.3340625 -19.31203125 163.0040625 -20.33203125 162.6640625 C-18.35203125 162.6640625 -16.37203125 162.6640625 -14.33203125 162.6640625 C-14.33203125 124.3840625 -14.33203125 86.1040625 -14.33203125 46.6640625 C-2.95787163 52.35114231 5.61754754 64.14125683 10.66796875 75.6640625 C10.66796875 76.6540625 10.66796875 77.6440625 10.66796875 78.6640625 C15.28796875 78.6640625 19.90796875 78.6640625 24.66796875 78.6640625 C15.42824372 58.80848318 2.79109696 47.02990026 -16.33203125 36.6640625 C-16.43123235 32.34080217 -16.5036539 28.01815226 -16.55175781 23.6940918 C-16.5718195 22.22457329 -16.59907603 20.75513409 -16.63378906 19.28588867 C-16.68255266 17.16825763 -16.70505286 15.05168563 -16.72265625 12.93359375 C-16.74360352 11.66104736 -16.76455078 10.38850098 -16.78613281 9.07739258 C-16.33203125 5.6640625 -16.33203125 5.6640625 -15.07836914 2.7512207 C-10.51660711 -0.71562111 -5.56860439 -0.04779959 0 0 Z " fill="#D6CECD" transform="translate(255.33203125,152.3359375)"/>
<path d="M0 0 C99.03484513 0 99.03484513 0 114.375 13.4375 C124.27154244 24.2745346 127.64993031 37.68813377 127.12744141 51.92675781 C126.37413831 64.18164261 121.57145249 73.9627618 112.6875 82.375 C99.34171125 93.39880185 84.59655217 94.49789657 68 94 C69.39506426 97.25042891 70.96783394 99.07371792 73.6875 101.3125 C80.36208349 106.83675447 85.9145246 112.87731171 91 119.875 C92.04766612 121.29334632 93.09583949 122.7113181 94.14453125 124.12890625 C94.63904785 124.80066895 95.13356445 125.47243164 95.64306641 126.16455078 C98.35601291 129.83420386 101.1605757 133.42782104 104 137 C104.68320312 137.86882812 105.36640625 138.73765625 106.0703125 139.6328125 C113.04621426 148.35876627 120.39940805 156.52172142 129.6015625 162.94140625 C130.29378906 163.46541016 130.29378906 163.46541016 131 164 C131 164.33 131 164.66 131 165 C114.61560487 166.36256263 114.61560487 166.36256263 108.828125 163.34765625 C106.29103851 161.04892661 104.15277742 158.66001811 102 156 C101.29488281 155.26523437 100.58976562 154.53046875 99.86328125 153.7734375 C91.58418719 145.12275035 84.57135703 135.220649 77.484375 125.58984375 C73.26106099 119.86769628 68.88525663 114.46664239 64.04296875 109.25390625 C62 107 62 107 60.01953125 104.41796875 C57.99908231 101.99890125 56.13064959 100.46172405 53.5 98.75 C52.7471875 98.24984375 51.994375 97.7496875 51.21875 97.234375 C46.67438728 94.70617321 41.85130548 94.71239367 36.75 94.4375 C36.00492187 94.39431641 35.25984375 94.35113281 34.4921875 94.30664062 C32.661651 94.20103275 30.83084824 94.10005799 29 94 C29 93.01 29 92.02 29 91 C30.77661011 90.970271 30.77661011 90.970271 32.58911133 90.93994141 C37.03055221 90.86322393 41.47169334 90.77461483 45.9128418 90.68261719 C47.82619256 90.64459826 49.73960823 90.60970092 51.65307617 90.578125 C69.89843106 90.27332137 86.96235113 89.81992692 100.87109375 76.40234375 C103.96398764 72.91219743 106.2013205 69.29434731 108 65 C108.36480469 64.14277344 108.72960937 63.28554687 109.10546875 62.40234375 C110.35270606 57.6584848 110.32900195 53.13457682 110.3125 48.25 C110.32861328 47.3115625 110.34472656 46.373125 110.36132812 45.40625 C110.36900139 34.29536542 107.4306068 25.37394555 100 17 C91.72134785 9.61065619 79.42366139 4.93248416 68.36108398 4.82299805 C67.22988632 4.81016281 66.09868866 4.79732758 64.93321228 4.78410339 C63.71646317 4.77671646 62.49971405 4.76932953 61.24609375 4.76171875 C59.993694 4.753647 58.74129425 4.74557526 57.45094299 4.73725891 C54.80392772 4.72343377 52.15703635 4.71241117 49.51000977 4.70483398 C46.11797216 4.69373292 42.72658397 4.65927542 39.33477688 4.61966228 C36.09694683 4.58727442 32.85906112 4.58272638 29.62109375 4.57421875 C27.79293373 4.54795662 27.79293373 4.54795662 25.92784119 4.52116394 C24.79979568 4.52408951 23.67175018 4.52701508 22.50952148 4.5300293 C21.51564926 4.52416306 20.52177704 4.51829681 19.49778748 4.51225281 C16.92276906 4.77382236 16.92276906 4.77382236 15.36880875 6.63027287 C13.58719994 9.71465316 13.61556694 11.84694619 13.60127258 15.40338135 C13.58873444 16.72148804 13.57619629 18.03959473 13.5632782 19.39764404 C13.56445224 20.85656763 13.56591139 22.31549101 13.56762695 23.77441406 C13.55861009 25.31193836 13.54828306 26.84945546 13.53674316 28.38696289 C13.50913794 32.56016558 13.49988389 36.733232 13.49388909 40.90651417 C13.48451457 45.26811447 13.45831195 49.62961262 13.43388367 53.9911499 C13.39018957 62.25000004 13.3616605 70.50883038 13.33856028 78.76776099 C13.3115242 88.17039375 13.26761172 97.57292388 13.22227156 106.97548342 C13.1293836 126.31693664 13.05832052 145.65841379 13 165 C8.71 165 4.42 165 0 165 C0 110.55 0 56.1 0 0 Z " fill="#B14718" transform="translate(226,149)"/>
<path d="M0 0 C62 0 62 0 68 1 C68 2.98 68 4.96 68 7 C67.05745361 6.78778809 66.11490723 6.57557617 65.14379883 6.35693359 C55.36871141 4.27398961 45.98813903 3.52603204 36.00415039 3.60888672 C33.64348356 3.62530615 31.28445087 3.60875395 28.92382812 3.58984375 C27.41145458 3.59182106 25.89908204 3.59565406 24.38671875 3.6015625 C23.6868132 3.59548981 22.98690765 3.58941711 22.26579285 3.5831604 C18.58053851 3.61925556 18.58053851 3.61925556 15.31716633 5.14985752 C13.43179395 7.79812407 13.62528083 9.75611134 13.6257782 12.99046326 C13.61876389 14.24251556 13.61174957 15.49456787 13.60452271 16.78456116 C13.61195069 18.1746537 13.61968184 19.56474464 13.62768555 20.95483398 C13.62525793 22.41675068 13.6215389 23.87866572 13.61662292 25.34057617 C13.60720524 29.31376927 13.61664706 33.2867164 13.62995505 37.25989032 C13.64126001 41.41537186 13.63716273 45.57084112 13.63520813 49.72633362 C13.63432475 56.70634994 13.64541383 63.68626922 13.66381836 70.66625977 C13.68497839 78.73752385 13.68849788 86.80864567 13.6822564 94.87993187 C13.67656211 102.64070289 13.6822097 110.40142378 13.69342995 118.16218758 C13.69807592 121.46632883 13.69894978 124.77043942 13.6968441 128.07458305 C13.6949608 131.96599277 13.70306828 135.85725765 13.7189045 139.74863434 C13.7231482 141.17728895 13.72399732 142.60595826 13.72121429 144.03461647 C13.71799307 145.98393534 13.72829821 147.93326263 13.73930359 149.8825531 C13.74135646 150.97374671 13.74340933 152.06494032 13.74552441 153.1892004 C14.00061542 156.00679756 14.45106093 157.65270172 16 160 C27.80847306 165.90423653 52.73666855 161.04810426 65.1875 157.75 C83.09765425 151.77994858 96.57981159 140.24016462 105.25 123.5 C115.08433264 103.22302548 115.71459188 82.10453388 113 60 C117.18525372 60.55603012 119.77196433 61.92573539 123.1875 64.375 C124.04730469 64.98085937 124.90710938 65.58671875 125.79296875 66.2109375 C128 68 128 68 130 71 C130.16699219 73.26147461 130.16699219 73.26147461 130.046875 75.90234375 C130.00602783 76.86914062 129.96518066 77.8359375 129.9230957 78.83203125 C129.83741333 80.36923828 129.83741333 80.36923828 129.75 81.9375 C129.69481201 82.98421875 129.63962402 84.0309375 129.58276367 85.109375 C128.20532274 109.05708957 119.7923625 129.01459723 102.4375 145.87109375 C74.01845649 170.69221348 35.54130023 164 0 164 C0 109.88 0 55.76 0 0 Z " fill="#5894B6" transform="translate(158,184)"/>
<path d="M0 0 C5.28 0 10.56 0 16 0 C14.35 1.98 12.7 3.96 11 6 C10.27257863 9.20331541 10.27257863 9.20331541 10.39872742 12.64389038 C10.39445529 13.2860511 10.39018317 13.92821182 10.38578159 14.58983195 C10.37758764 16.72776734 10.40497134 18.86371229 10.43237305 21.00146484 C10.43378432 22.53927565 10.43298998 24.07708983 10.43016052 25.61489868 C10.42872804 29.77999648 10.45809004 33.94437188 10.49303031 38.10930204 C10.52432208 42.46545959 10.52722677 46.82163436 10.53315735 51.17788696 C10.54868754 59.42268377 10.58970473 67.66714842 10.6399048 75.91179907 C10.69582402 85.29986255 10.72329123 94.68794203 10.74838197 104.07613063 C10.80062139 123.38427528 10.88854754 142.69211092 11 162 C7.37 162 3.74 162 0 162 C0 108.54 0 55.08 0 0 Z " fill="#B54615" transform="translate(227,151)"/>
<path d="M0 0 C4.62 0 9.24 0 14 0 C13.67 0.99 13.34 1.98 13 3 C12.34 3 11.68 3 11 3 C10.9299316 22.73196096 10.87702246 42.46389668 10.84456348 62.19595623 C10.82909191 71.35781194 10.80799683 80.51959037 10.77368164 89.68139648 C10.74378819 97.66644763 10.72442711 105.6514428 10.71773452 113.63654834 C10.71382216 117.86495918 10.70462157 122.0932099 10.68280983 126.32156944 C10.66244551 130.30158666 10.65616606 134.28137781 10.66067696 138.26144218 C10.65985173 139.72194395 10.65388563 141.18245329 10.64238358 142.64291 C10.62744217 144.63795753 10.63283764 146.63312639 10.63923645 148.6282196 C10.63647107 149.74451091 10.63370569 150.86080221 10.63085651 152.01092052 C11.16763967 156.35743506 12.9462681 158.9462681 16 162 C10.72 162 5.44 162 0 162 C0 108.54 0 55.08 0 0 Z " fill="#5394B8" transform="translate(159,185)"/>
<path d="M0 0 C0.495 0.99 0.495 0.99 1 2 C-0.32 2 -1.64 2 -3 2 C-1.8408785 6.7813762 0.97776572 8.98391359 4.63671875 11.9609375 C10.53313051 17.04842004 15.42868306 22.58480125 20 28.875 C21.04766612 30.29334632 22.09583949 31.7113181 23.14453125 33.12890625 C23.88630615 34.13655029 23.88630615 34.13655029 24.64306641 35.16455078 C27.35601291 38.83420386 30.1605757 42.42782104 33 46 C33.68320312 46.86882812 34.36640625 47.73765625 35.0703125 48.6328125 C42.04621426 57.35876627 49.39940805 65.52172142 58.6015625 71.94140625 C59.29378906 72.46541016 59.29378906 72.46541016 60 73 C60 73.33 60 73.66 60 74 C43.61560487 75.36256263 43.61560487 75.36256263 37.828125 72.34765625 C35.29103851 70.04892661 33.15277742 67.66001811 31 65 C29.94232422 63.89785156 29.94232422 63.89785156 28.86328125 62.7734375 C20.58418719 54.12275035 13.57135703 44.220649 6.484375 34.58984375 C2.27157603 28.88194304 -2.13015865 23.54961579 -6.9140625 18.3125 C-14.83606557 9.53005464 -14.83606557 9.53005464 -15.375 4.5 C-15.25125 3.675 -15.1275 2.85 -15 2 C-15.99 2.33 -16.98 2.66 -18 3 C-19.7022294 3.01567171 -21.4054661 2.96734569 -23.10546875 2.87890625 C-24.08837891 2.83056641 -25.07128906 2.78222656 -26.08398438 2.73242188 C-27.62022461 2.64831055 -27.62022461 2.64831055 -29.1875 2.5625 C-30.22326172 2.51029297 -31.25902344 2.45808594 -32.32617188 2.40429688 C-34.88442049 2.27461607 -37.44227938 2.13965022 -40 2 C-40 1.67 -40 1.34 -40 1 C-26.8 0.67 -13.6 0.34 0 0 Z " fill="#B24819" transform="translate(297,240)"/>
<path d="M0 0 C62 0 62 0 68 1 C68 2.98 68 4.96 68 7 C67.05745361 6.78778809 66.11490723 6.57557617 65.14379883 6.35693359 C55.36871141 4.27398961 45.98813903 3.52603204 36.00415039 3.60888672 C33.64348356 3.62530615 31.28445087 3.60875395 28.92382812 3.58984375 C27.41145458 3.59182106 25.89908204 3.59565406 24.38671875 3.6015625 C23.6868132 3.59548981 22.98690765 3.58941711 22.26579285 3.5831604 C18.58053851 3.61925556 18.58053851 3.61925556 15.31716633 5.14985752 C13.43179395 7.79812407 13.62528083 9.75611134 13.6257782 12.99046326 C13.61876389 14.24251556 13.61174957 15.49456787 13.60452271 16.78456116 C13.61195069 18.1746537 13.61968184 19.56474464 13.62768555 20.95483398 C13.62525793 22.41675068 13.6215389 23.87866572 13.61662292 25.34057617 C13.60720524 29.31376927 13.61664706 33.2867164 13.62995505 37.25989032 C13.64126001 41.41537186 13.63716273 45.57084112 13.63520813 49.72633362 C13.63432475 56.70634994 13.64541383 63.68626922 13.66381836 70.66625977 C13.68497839 78.73752385 13.68849788 86.80864567 13.6822564 94.87993187 C13.67656211 102.64070289 13.6822097 110.40142378 13.69342995 118.16218758 C13.69807592 121.46632883 13.69894978 124.77043942 13.6968441 128.07458305 C13.6949608 131.96599277 13.70306828 135.85725765 13.7189045 139.74863434 C13.7231482 141.17728895 13.72399732 142.60595826 13.72121429 144.03461647 C13.71799307 145.98393534 13.72829821 147.93326263 13.73930359 149.8825531 C13.74135646 150.97374671 13.74340933 152.06494032 13.74552441 153.1892004 C14.00061542 156.00679756 14.45106093 157.65270172 16 160 C28.1926095 166.09630475 54.79174341 161.11878129 67.4375 156.99609375 C72.74516416 154.93290113 77.87726324 152.4810747 83 150 C81.63016497 153.16115776 81.0109362 153.9927092 78 156 C81.40417183 155.60416607 83.72967312 155.16345347 86.6875 153.375 C87.450625 152.92125 88.21375 152.4675 89 152 C89.99 152.33 90.98 152.66 92 153 C89.67920246 154.29927628 87.34713914 155.56229809 85 156.8125 C84.3709375 157.16892578 83.741875 157.52535156 83.09375 157.89257812 C60.05088977 169.96792315 19.6599808 164 0 164 C0 109.88 0 55.76 0 0 Z M1 1 C1 54.46 1 107.92 1 163 C6.28 163 11.56 163 17 163 C15.02 160.525 15.02 160.525 13 158 C11.62623381 155.25246762 11.87721137 153.0653991 11.87974548 149.98898315 C11.87768349 148.06643204 11.87768349 148.06643204 11.87557983 146.1050415 C11.87911922 144.67663551 11.88275404 143.24822975 11.88647461 141.81982422 C11.88675655 140.32201133 11.88659861 138.82419831 11.8860321 137.3263855 C11.88574441 133.25224167 11.89163662 129.17812709 11.89860606 125.10399008 C11.90484426 120.84920492 11.90544377 116.59441915 11.90663147 112.33963013 C11.9097434 104.27901608 11.91795495 96.21841555 11.92798096 88.15780747 C11.93914636 78.98260498 11.94465363 69.80740186 11.94967639 60.63219428 C11.96013767 41.75478852 11.97773446 22.87739534 12 4 C12.99 3.67 13.98 3.34 15 3 C15 2.34 15 1.68 15 1 C10.38 1 5.76 1 1 1 Z " fill="#5E90AE" transform="translate(158,184)"/>
<path d="M0 0 C0.7427417 0.00091644 1.4854834 0.00183289 2.25073242 0.0027771 C3.82428365 0.00881242 5.39782341 0.02455668 6.97119141 0.04931641 C9.33931559 0.08539386 11.70585072 0.09033829 14.07421875 0.08984375 C37.10996962 0.19590712 37.10996962 0.19590712 41.375 4.4609375 C38.075 4.4609375 34.775 4.4609375 31.375 4.4609375 C31.375 6.4409375 31.375 8.4209375 31.375 10.4609375 C30.385 10.7909375 29.395 11.1209375 28.375 11.4609375 C29.365 11.7909375 30.355 12.1209375 31.375 12.4609375 C31.87 13.9459375 31.87 13.9459375 32.375 15.4609375 C32.87 16.4509375 32.87 16.4509375 33.375 17.4609375 C30.405 17.9559375 30.405 17.9559375 27.375 18.4609375 C27.91125 19.0178125 28.4475 19.5746875 29 20.1484375 C29.45375 20.9115625 29.9075 21.6746875 30.375 22.4609375 C29.5625 25.2109375 29.5625 25.2109375 28.375 27.4609375 C29.365 27.4609375 30.355 27.4609375 31.375 27.4609375 C30.715 30.7609375 30.055 34.0609375 29.375 37.4609375 C27.58409747 37.65560082 25.79223495 37.84144963 24 38.0234375 C22.50339844 38.18005859 22.50339844 38.18005859 20.9765625 38.33984375 C18.375 38.4609375 18.375 38.4609375 16.375 37.4609375 C16.375 35.1509375 16.375 32.8409375 16.375 30.4609375 C17.365 30.4609375 18.355 30.4609375 19.375 30.4609375 C19.045 29.4709375 18.715 28.4809375 18.375 27.4609375 C18.271875 26.7803125 18.16875 26.0996875 18.0625 25.3984375 C17.53361061 23.25971778 17.53361061 23.25971778 15.3125 22.2109375 C14.673125 21.9634375 14.03375 21.7159375 13.375 21.4609375 C13.705 20.8009375 14.035 20.1409375 14.375 19.4609375 C16.51953125 18.8984375 16.51953125 18.8984375 19.1875 18.4609375 C22.84432208 17.85596841 24.95252658 17.17217421 28.375 15.4609375 C25.075 15.4609375 21.775 15.4609375 18.375 15.4609375 C18.045 14.1409375 17.715 12.8209375 17.375 11.4609375 C15.3912233 10.17657016 15.3912233 10.17657016 13.375 9.4609375 C14.035 7.4809375 14.695 5.5009375 15.375 3.4609375 C7.785 3.4609375 0.195 3.4609375 -7.625 3.4609375 C-9.30932457 6.82958664 -8.86799303 10.6494078 -8.93701172 14.35888672 C-8.95750202 15.28177616 -8.97799232 16.2046656 -8.99910355 17.15552139 C-9.06507803 20.23380069 -9.12293061 23.31216269 -9.1796875 26.390625 C-9.20062344 27.45496639 -9.22155937 28.51930779 -9.24312973 29.61590195 C-9.68884066 52.47532563 -9.78018875 75.33213738 -9.75537109 98.1953125 C-9.7495197 103.63470637 -9.75307515 109.07405254 -9.75894356 114.5134449 C-9.76254575 118.77532315 -9.76141478 123.03718987 -9.75881577 127.29906845 C-9.75815337 129.3092741 -9.7589506 131.31948082 -9.76129532 133.32968521 C-9.76383265 136.09888814 -9.75997297 138.86801016 -9.75439453 141.63720703 C-9.75641876 142.44724686 -9.75844299 143.25728668 -9.76052856 144.09187317 C-9.75770874 144.84692642 -9.75488892 145.60197968 -9.75198364 146.37991333 C-9.75160662 147.02735064 -9.75122959 147.67478794 -9.75084114 148.34184456 C-9.58887278 151.06929931 -9.07418073 153.76585312 -8.625 156.4609375 C5.895 156.4609375 20.415 156.4609375 35.375 156.4609375 C35.375 156.7909375 35.375 157.1209375 35.375 157.4609375 C25.65779845 159.28393009 16.06351166 159.70513231 6.1875 159.7734375 C4.99342529 159.79083984 3.79935059 159.80824219 2.5690918 159.82617188 C1.43898682 159.82552734 0.30888184 159.82488281 -0.85546875 159.82421875 C-2.37756958 159.82869019 -2.37756958 159.82869019 -3.93041992 159.83325195 C-7.04422436 159.4030126 -8.39240321 158.64485336 -10.625 156.4609375 C-11.70329554 153.22605089 -11.75883769 150.87384073 -11.77217102 147.47047424 C-11.77932632 146.21842194 -11.78648163 144.96636963 -11.79385376 143.67637634 C-11.79669394 142.28628565 -11.79940568 140.89619469 -11.80200195 139.50610352 C-11.80826739 138.04418781 -11.81491426 136.5822737 -11.82191467 135.12036133 C-11.84294143 130.31853339 -11.85331319 125.51670517 -11.86328125 120.71484375 C-11.8673288 119.06220928 -11.87144572 117.40957497 -11.87563133 115.75694084 C-11.894677 107.99565264 -11.90891145 100.23437394 -11.9172433 92.47306687 C-11.92702515 83.50893541 -11.9533718 74.54505026 -11.99374419 65.58100563 C-12.02387223 58.65439852 -12.03870887 51.72786217 -12.04202431 44.80119079 C-12.04437789 40.66280084 -12.05337836 36.52467422 -12.07848549 32.38635445 C-12.10171466 28.49487521 -12.10602056 24.60383368 -12.09572411 20.71230316 C-12.09522743 19.28362767 -12.10158671 17.85493099 -12.11528015 16.42632103 C-12.13291976 14.47708845 -12.12353352 12.52766695 -12.11274719 10.5783844 C-12.11513555 9.48719079 -12.1175239 8.39599718 -12.11998463 7.2717371 C-10.90996671 0.40057851 -6.06402726 -0.12321117 0 0 Z " fill="#CFCFD2" transform="translate(182.625,186.5390625)"/>
<path d="M0 0 C78 0 78 0 86 1 C86 1.33 86 1.66 86 2 C80.06 2.33 74.12 2.66 68 3 C68 3.33 68 3.66 68 4 C67.36772995 4.00364563 66.7354599 4.00729126 66.08403015 4.01104736 C59.51405845 4.0527987 52.94479015 4.12209209 46.37524414 4.20751953 C43.92219064 4.23577715 41.46904528 4.25696769 39.01586914 4.27099609 C35.49317221 4.29235872 31.97158548 4.33897652 28.44921875 4.390625 C26.79910042 4.39246796 26.79910042 4.39246796 25.11564636 4.39434814 C24.09481461 4.41406677 23.07398285 4.4337854 22.0222168 4.45410156 C20.67319527 4.46742523 20.67319527 4.46742523 19.29692078 4.48101807 C16.90265529 4.80576051 16.90265529 4.80576051 15.38136292 6.63222504 C13.58231555 9.7159471 13.61559781 11.83926368 13.60127258 15.40338135 C13.58873444 16.72148804 13.57619629 18.03959473 13.5632782 19.39764404 C13.56445224 20.85656763 13.56591139 22.31549101 13.56762695 23.77441406 C13.55861009 25.31193836 13.54828306 26.84945546 13.53674316 28.38696289 C13.50913794 32.56016558 13.49988389 36.733232 13.49388909 40.90651417 C13.48451457 45.26811447 13.45831195 49.62961262 13.43388367 53.9911499 C13.39018957 62.25000004 13.3616605 70.50883038 13.33856028 78.76776099 C13.3115242 88.17039375 13.26761172 97.57292388 13.22227156 106.97548342 C13.1293836 126.31693664 13.05832052 145.65841379 13 165 C8.71 165 4.42 165 0 165 C0 110.55 0 56.1 0 0 Z M1 2 C1 55.46 1 108.92 1 164 C4.63 164 8.26 164 12 164 C11.99308655 162.80232278 11.99308655 162.80232278 11.98603344 161.58045006 C11.87560322 142.15077819 11.79286727 122.72116898 11.74093914 103.29125023 C11.71515946 93.89506128 11.68001348 84.49908183 11.62280273 75.10302734 C11.5729605 66.9132408 11.54070727 58.72360598 11.52955753 50.53367198 C11.52304012 46.19723835 11.50772759 41.86123879 11.47134972 37.52494431 C11.43737707 33.44222517 11.42694944 29.36011833 11.43446159 25.27727127 C11.43308759 23.78007936 11.42316206 22.28286668 11.40397263 20.78579712 C11.37901147 18.73774772 11.38510192 16.69199535 11.39872742 14.64389038 C11.39411845 13.49902349 11.38950949 12.35415661 11.38476086 11.17459679 C12 8 12 8 17 2 C11.72 2 6.44 2 1 2 Z " fill="#AB5F40" transform="translate(226,149)"/>
<path d="M0 0 C3.0629052 0.00321734 5.15915837 0.01255245 8 1 C10.1439814 3.35704327 11.2699559 6.02118643 12.5 8.9375 C12.84546875 9.67935547 13.1909375 10.42121094 13.546875 11.18554688 C16 16.55419147 16 16.55419147 16 19 C15 19 14 19 13 19 C13 19.66 13 20.32 13 21 C14.32 21 15.64 21 17 21 C18.86630915 24.7326183 18.22798906 29.20470785 18.25 33.3125 C18.270625 34.26318359 18.29125 35.21386719 18.3125 36.19335938 C18.36269549 45.17207722 18.36269549 45.17207722 15 49 C14.34 49 13.68 49 13 49 C13 50.65 13 52.3 13 54 C12.01 54.495 12.01 54.495 11 55 C11 54.34 11 53.68 11 53 C10.34 53 9.68 53 9 53 C6.57190365 47.25437093 5.53117359 42.52023113 5.375 36.3125 C5.31238898 34.73823343 5.24857649 33.16401421 5.18359375 31.58984375 C5.15507324 30.81882324 5.12655273 30.04780273 5.09716797 29.25341797 C4.87751563 24.15947055 4.4218787 19.08049665 4 14 C3.34 14 2.68 14 2 14 C-0.3992233 9.35150485 -0.19957409 5.08913926 0 0 Z " fill="#B64613" transform="translate(333,163)"/>
<path d="M0 0 C0.67095703 0.58007812 0.67095703 0.58007812 1.35546875 1.171875 C1.96003906 1.69265625 2.56460937 2.2134375 3.1875 2.75 C4.07501953 3.51570313 4.07501953 3.51570313 4.98046875 4.296875 C5.64691406 4.85890625 6.31335938 5.4209375 7 6 C8.06734375 7.0828125 8.06734375 7.0828125 9.15625 8.1875 C13.2133639 10.77335282 16.6127998 10.4428843 21.3125 10.25 C22.14845703 10.23195313 22.98441406 10.21390625 23.84570312 10.1953125 C25.89763228 10.14841126 27.94896756 10.07667411 30 10 C28.68 8.68 27.36 7.36 26 6 C27.60597325 6.45196245 29.20972508 6.91182327 30.8125 7.375 C31.70582031 7.63023437 32.59914063 7.88546875 33.51953125 8.1484375 C36 9 36 9 39 11 C37.02 11.99 35.04 12.98 33 14 C33 14.33 33 14.66 33 15 C31.02 15 29.04 15 27 15 C27 14.67 27 14.34 27 14 C26.04738281 13.93941406 25.09476562 13.87882812 24.11328125 13.81640625 C22.85902344 13.73261719 21.60476563 13.64882813 20.3125 13.5625 C19.07113281 13.48128906 17.82976562 13.40007812 16.55078125 13.31640625 C13.61819663 13.05508683 10.86558383 12.65201621 8 12 C8 13.65 8 15.3 8 17 C8.66 17 9.32 17 10 17 C10 16.34 10 15.68 10 15 C10.99 15 11.98 15 13 15 C13 15.99 13 16.98 13 18 C12.01 18 11.02 18 10 18 C10.79117904 19.99983534 10.79117904 19.99983534 12 22 C12.99 22.33 13.98 22.66 15 23 C15.33 22.34 15.66 21.68 16 21 C16.33 22.32 16.66 23.64 17 25 C17.33 24.34 17.66 23.68 18 23 C18.66 23 19.32 23 20 23 C20.33 21.68 20.66 20.36 21 19 C22.32 19.66 23.64 20.32 25 21 C24.34 21.33 23.68 21.66 23 22 C23.65484375 22.37769531 24.3096875 22.75539063 24.984375 23.14453125 C27 25 27 25 27.390625 27.69921875 C27.32101562 29.17841797 27.32101562 29.17841797 27.25 30.6875 C27.21390625 31.68136719 27.1778125 32.67523438 27.140625 33.69921875 C27.07101562 34.83810547 27.07101562 34.83810547 27 36 C25.515 36.495 25.515 36.495 24 37 C23.34 36.67 22.68 36.34 22 36 C22 35.34 22 34.68 22 34 C20.05925139 34.27617533 20.05925139 34.27617533 18 35 C17.34 35.99 16.68 36.98 16 38 C12.5625 38.8125 12.5625 38.8125 9 39 C8.01 38.34 7.02 37.68 6 37 C2.86650268 35.95550089 2.01031744 36.06576355 -1 37 C-1 35.35 -1 33.7 -1 32 C-1.66 31.67 -2.32 31.34 -3 31 C-3.33 31.99 -3.66 32.98 -4 34 C-4 31.36 -4 28.72 -4 26 C-1.625 25.875 -1.625 25.875 1 26 C3.46278801 28.46278801 3.99771255 30.70676982 5 34 C5.07347656 33.11248047 5.07347656 33.11248047 5.1484375 32.20703125 C5.56456867 27.80895528 6.04965595 24.03071103 8 20 C6.35 20 4.7 20 3 20 C3.875 14.125 3.875 14.125 5 13 C3.35 12.67 1.7 12.34 0 12 C0.66 11.67 1.32 11.34 2 11 C1.67 10.01 1.34 9.02 1 8 C2.32 8 3.64 8 5 8 C4.34 6.68 3.68 5.36 3 4 C2.01 4 1.02 4 0 4 C0 2.68 0 1.36 0 0 Z " fill="#DACCC9" transform="translate(326,303)"/>
<path d="M0 0 C17.86674616 8.11176359 30.8013412 19.47767677 40 37 C40.495 39.475 40.495 39.475 41 42 C36.38 42 31.76 42 27 42 C25.5459375 38.8753125 25.5459375 38.8753125 24.0625 35.6875 C19.37829458 26.12962571 13.4836654 18.74132275 4.9375 12.3125 C0.19427849 8.65268842 0.19427849 8.65268842 -0.6953125 5.6640625 C-0.6875 3.4375 -0.6875 3.4375 0 0 Z " fill="#5593B7" transform="translate(239,189)"/>
<path d="M0 0 C3.52892682 3.12321506 5.2755407 6.21406554 7.1875 10.5 C7.69667969 11.6240625 8.20585937 12.748125 8.73046875 13.90625 C13.20575978 24.81218998 11.94943663 39.09337074 8 50 C1.91268887 62.53755138 -7.74137853 70.27505399 -20.66796875 74.96875 C-29.67718755 77.65287588 -38.70183691 77.27894489 -48 77 C-46.02 76.505 -46.02 76.505 -44 76 C-44.97244101 74.7947746 -44.97244101 74.7947746 -46.76586914 74.97827148 C-47.88916626 75.04896851 -47.88916626 75.04896851 -49.03515625 75.12109375 C-50.24848633 75.19360352 -50.24848633 75.19360352 -51.48632812 75.26757812 C-52.7615332 75.35168945 -52.7615332 75.35168945 -54.0625 75.4375 C-54.91650391 75.48970703 -55.77050781 75.54191406 -56.65039062 75.59570312 C-58.76721995 75.72578761 -60.88365244 75.86229971 -63 76 C-62.01 76 -61.02 76 -60 76 C-59.34 78.64 -58.68 81.28 -58 84 C-60.64525803 83.04476793 -62.81123085 82.14300693 -65.0625 80.4375 C-69.18495767 77.37890238 -74.28901057 77.70483247 -79.25 77.4375 C-79.99507813 77.39431641 -80.74015625 77.35113281 -81.5078125 77.30664062 C-83.338349 77.20103275 -85.16915176 77.10005799 -87 77 C-87 76.01 -87 75.02 -87 74 C-85.22338989 73.970271 -85.22338989 73.970271 -83.41088867 73.93994141 C-78.96944779 73.86322393 -74.52830666 73.77461483 -70.0871582 73.68261719 C-68.17380744 73.64459826 -66.26039177 73.60970092 -64.34692383 73.578125 C-45.99069495 73.48134918 -45.99069495 73.48134918 -28.5 68.4375 C-25.6677669 67.18162822 -22.94030195 65.98010065 -20 65 C-20 66.32 -20 67.64 -20 69 C-21.32 69 -22.64 69 -24 69 C-24 69.66 -24 70.32 -24 71 C-22.02 71.495 -22.02 71.495 -20 72 C-20 71.34 -20 70.68 -20 70 C-18.68 70 -17.36 70 -16 70 C-16.33 69.01 -16.66 68.02 -17 67 C-16.34 67 -15.68 67 -15 67 C-15 67.66 -15 68.32 -15 69 C-13.68 69 -12.36 69 -11 69 C-11 68.01 -11 67.02 -11 66 C-11.66 66 -12.32 66 -13 66 C-13 65.34 -13 64.68 -13 64 C-8.25 64.875 -8.25 64.875 -6 66 C-5.67 64.35 -5.34 62.7 -5 61 C-3.515 61.495 -3.515 61.495 -2 62 C-2 60.02 -2 58.04 -2 56 C-1.34 56 -0.68 56 0 56 C0 54.02 0 52.04 0 50 C1.485 50.495 1.485 50.495 3 51 C3 49.02 3 47.04 3 45 C4.485 45.495 4.485 45.495 6 46 C7.59245395 42.48172372 8.24261382 39.77302648 8.1953125 35.91796875 C8.18886719 34.98662109 8.18242187 34.05527344 8.17578125 33.09570312 C8.15902344 32.13599609 8.14226562 31.17628906 8.125 30.1875 C8.11597656 29.20845703 8.10695313 28.22941406 8.09765625 27.22070312 C8.07417182 24.81354939 8.0413284 22.40690257 8 20 C7.34 20 6.68 20 6 20 C6 19.34 6 18.68 6 18 C5.34 18 4.68 18 4 18 C3.67 16.35 3.34 14.7 3 13 C3.99 13.495 3.99 13.495 5 14 C5 14.66 5 15.32 5 16 C5.66 16 6.32 16 7 16 C6.24203125 14.51886719 6.24203125 14.51886719 5.46875 13.0078125 C4.81228987 11.71364824 4.15605133 10.41937155 3.5 9.125 C3.16613281 8.47402344 2.83226562 7.82304687 2.48828125 7.15234375 C0 2.2265625 0 2.2265625 0 0 Z " fill="#AF4B1E" transform="translate(342,166)"/>
<path d="M0 0 C0.7427417 0.00091644 1.4854834 0.00183289 2.25073242 0.0027771 C3.82428365 0.00881242 5.39782341 0.02455668 6.97119141 0.04931641 C9.33931559 0.08539386 11.70585072 0.09033829 14.07421875 0.08984375 C37.10996962 0.19590712 37.10996962 0.19590712 41.375 4.4609375 C40.73208008 4.3894751 40.08916016 4.3180127 39.42675781 4.24438477 C29.65451465 3.2854185 19.93130315 3.34841497 10.125 3.3984375 C8.39713672 3.40346507 6.66927202 3.40802574 4.94140625 3.41210938 C0.75256832 3.42300953 -3.43619967 3.44020402 -7.625 3.4609375 C-9.30932457 6.82958664 -8.86799303 10.6494078 -8.93701172 14.35888672 C-8.95750202 15.28177616 -8.97799232 16.2046656 -8.99910355 17.15552139 C-9.06507803 20.23380069 -9.12293061 23.31216269 -9.1796875 26.390625 C-9.20062344 27.45496639 -9.22155937 28.51930779 -9.24312973 29.61590195 C-9.68884066 52.47532563 -9.78018875 75.33213738 -9.75537109 98.1953125 C-9.7495197 103.63470637 -9.75307515 109.07405254 -9.75894356 114.5134449 C-9.76254575 118.77532315 -9.76141478 123.03718987 -9.75881577 127.29906845 C-9.75815337 129.3092741 -9.7589506 131.31948082 -9.76129532 133.32968521 C-9.76383265 136.09888814 -9.75997297 138.86801016 -9.75439453 141.63720703 C-9.75641876 142.44724686 -9.75844299 143.25728668 -9.76052856 144.09187317 C-9.75770874 144.84692642 -9.75488892 145.60197968 -9.75198364 146.37991333 C-9.75160662 147.02735064 -9.75122959 147.67478794 -9.75084114 148.34184456 C-9.58887278 151.06929931 -9.07418073 153.76585312 -8.625 156.4609375 C5.895 156.4609375 20.415 156.4609375 35.375 156.4609375 C35.375 156.7909375 35.375 157.1209375 35.375 157.4609375 C25.65779845 159.28393009 16.06351166 159.70513231 6.1875 159.7734375 C4.99342529 159.79083984 3.79935059 159.80824219 2.5690918 159.82617188 C1.43898682 159.82552734 0.30888184 159.82488281 -0.85546875 159.82421875 C-2.37756958 159.82869019 -2.37756958 159.82869019 -3.93041992 159.83325195 C-7.04422436 159.4030126 -8.39240321 158.64485336 -10.625 156.4609375 C-11.70329554 153.22605089 -11.75883769 150.87384073 -11.77217102 147.47047424 C-11.77932632 146.21842194 -11.78648163 144.96636963 -11.79385376 143.67637634 C-11.79669394 142.28628565 -11.79940568 140.89619469 -11.80200195 139.50610352 C-11.80826739 138.04418781 -11.81491426 136.5822737 -11.82191467 135.12036133 C-11.84294143 130.31853339 -11.85331319 125.51670517 -11.86328125 120.71484375 C-11.8673288 119.06220928 -11.87144572 117.40957497 -11.87563133 115.75694084 C-11.894677 107.99565264 -11.90891145 100.23437394 -11.9172433 92.47306687 C-11.92702515 83.50893541 -11.9533718 74.54505026 -11.99374419 65.58100563 C-12.02387223 58.65439852 -12.03870887 51.72786217 -12.04202431 44.80119079 C-12.04437789 40.66280084 -12.05337836 36.52467422 -12.07848549 32.38635445 C-12.10171466 28.49487521 -12.10602056 24.60383368 -12.09572411 20.71230316 C-12.09522743 19.28362767 -12.10158671 17.85493099 -12.11528015 16.42632103 C-12.13291976 14.47708845 -12.12353352 12.52766695 -12.11274719 10.5783844 C-12.11513555 9.48719079 -12.1175239 8.39599718 -12.11998463 7.2717371 C-10.90996671 0.40057851 -6.06402726 -0.12321117 0 0 Z " fill="#C7D2D9" transform="translate(182.625,186.5390625)"/>
<path d="M0 0 C0.33 0 0.66 0 1 0 C1.00331015 0.74875774 1.00662029 1.49751549 1.01003075 2.26896286 C1.09121647 20.47966249 1.18329435 38.69027713 1.28752708 56.90085983 C1.3376698 65.70732635 1.38411253 74.51378348 1.421875 83.3203125 C1.45479436 90.99520401 1.49462525 98.67002303 1.54279006 106.34483457 C1.56805562 110.40937825 1.58983673 114.47387385 1.60334396 118.53847504 C1.61616381 122.3633881 1.63821733 126.18813625 1.66738319 130.01295853 C1.67645958 131.41741021 1.68214935 132.82188845 1.68421364 134.22636795 C1.68753556 136.14303522 1.70418801 138.05966561 1.7215271 139.97625732 C1.72705786 141.04922436 1.73258862 142.12219139 1.73828697 143.22767258 C2.00193335 146.02047995 2.46839175 147.6685385 4 150 C16.1926095 156.09630475 42.79174341 151.11878129 55.4375 146.99609375 C60.74516416 144.93290113 65.87726324 142.4810747 71 140 C69.63016497 143.16115776 69.0109362 143.9927092 66 146 C69.40417183 145.60416607 71.72967312 145.16345347 74.6875 143.375 C75.450625 142.92125 76.21375 142.4675 77 142 C77.99 142.33 78.98 142.66 80 143 C77.67920246 144.29927628 75.34713914 145.56229809 73 146.8125 C72.3709375 147.16892578 71.741875 147.52535156 71.09375 147.89257812 C59.3281307 154.05821516 45.75923543 154.46704295 32.76098633 154.28125 C30.53905524 154.24966675 28.31783837 154.24021184 26.09570312 154.234375 C6.55176062 154.13149212 6.55176062 154.13149212 2 150.8125 C-1.26641562 146.21910304 -1.12610095 141.38822978 -1.08229065 135.88760376 C-1.07525116 134.6845459 -1.06821167 133.48148804 -1.06095886 132.24197388 C-1.04801285 130.93574066 -1.03506683 129.62950745 -1.02172852 128.28369141 C-1.01157598 126.88381258 -1.00188338 125.48393036 -0.99261475 124.08404541 C-0.96623126 120.2952183 -0.93343226 116.50647093 -0.89946485 112.71770525 C-0.86502488 108.75391942 -0.83650804 104.79009105 -0.80735779 100.82626343 C-0.75129797 93.32532431 -0.68992594 85.82443848 -0.62663645 78.32355726 C-0.55482457 69.78189481 -0.48894832 61.24018979 -0.42356598 52.69847608 C-0.28897309 35.13226176 -0.14694133 17.56611527 0 0 Z " fill="#6F98B0" transform="translate(170,194)"/>
<path d="M0 0 C0.495 0.99 0.495 0.99 1 2 C-4.16216577 5.75430238 -7.56014376 7.67081836 -14 7 C-11.36 7.99 -8.72 8.98 -6 10 C-6 10.33 -6 10.66 -6 11 C-7.98 11.33 -9.96 11.66 -12 12 C-11.67 12.66 -11.34 13.32 -11 14 C-13.97 14.66 -16.94 15.32 -20 16 C-19.67 16.99 -19.34 17.98 -19 19 C-17.02 19 -15.04 19 -13 19 C-13.33 19.99 -13.66 20.98 -14 22 C-13.09946473 25.87922884 -12.21710766 28.67433852 -10 32 C-10.33 32.99 -10.66 33.98 -11 35 C-11.60585938 34.17757812 -12.21171875 33.35515625 -12.8359375 32.5078125 C-19.04866982 24.18955693 -25.71492679 16.96941184 -33.2890625 9.84765625 C-35 8 -35 8 -35 6 C-33.83984375 5.96261719 -32.6796875 5.92523438 -31.484375 5.88671875 C-20.40775939 5.45078117 -10.34058145 4.28846376 0 0 Z " fill="#D9CBC5" transform="translate(329,237)"/>
<path d="M0 0 C3.74610775 1.24870258 3.99659235 2.76213418 5.76171875 6.1015625 C7.13850005 8.21233762 8.59577509 9.49740102 10.5625 11.0625 C13.84328516 13.70806931 15.34724244 16.06486294 17 20 C18.10368152 22.0266892 19.20945901 24.05184995 20.328125 26.0703125 C21.14949025 28.4293499 20.80572936 29.67578068 20 32 C19.34 32 18.68 32 18 32 C18 32.99 18 33.98 18 35 C16.515 34.505 16.515 34.505 15 34 C14.505 31.525 14.505 31.525 14 29 C13.01 29.33 12.02 29.66 11 30 C10.67 29.01 10.34 28.02 10 27 C10.66 27 11.32 27 12 27 C12 26.34 12 25.68 12 25 C10.68 25 9.36 25 8 25 C7.67 22.69 7.34 20.38 7 18 C4.69 17.67 2.38 17.34 0 17 C0 15.02 0 13.04 0 11 C-1.32 10.67 -2.64 10.34 -4 10 C-4 9.01 -4 8.02 -4 7 C-3.34 7 -2.68 7 -2 7 C-1.34 4.69 -0.68 2.38 0 0 Z " fill="#B54613" transform="translate(310,265)"/>
<path d="M0 0 C0.66 1.32 1.32 2.64 2 4 C2.99 3.01 3.98 2.02 5 1 C7.02045442 1.60183749 9.02111039 2.27306096 11 3 C12.31164842 5.62329684 12.13262846 7.63698625 12.125 10.5625 C12.12886719 12.04943359 12.12886719 12.04943359 12.1328125 13.56640625 C12 16 12 16 11 17 C6.45049584 17.26247139 3.11560195 16.99544337 -1 15 C-1 16.32 -1 17.64 -1 19 C-1 19.33 -1 19.66 -1 20 C-3.25 20.3125 -3.25 20.3125 -6 20 C-9.22175062 16.77824938 -11.089998 13.1065043 -13 9 C-13.33 10.32 -13.66 11.64 -14 13 C-14.66 13 -15.32 13 -16 13 C-16.33 13.99 -16.66 14.98 -17 16 C-17.66 15.67 -18.32 15.34 -19 15 C-18.690625 14.46375 -18.38125 13.9275 -18.0625 13.375 C-16.82172561 10.6015043 -16.4090325 7.99957163 -16 5 C-12.535 4.505 -12.535 4.505 -9 4 C-6.67409146 7.63423209 -6.83734167 10.77088331 -7 15 C-6.67 14.67 -6.34 14.34 -6 14 C-5.34 13.67 -4.68 13.34 -4 13 C-3.53348793 10.87423218 -3.53348793 10.87423218 -3.375 8.4375 C-3.30023438 7.61121094 -3.22546875 6.78492188 -3.1484375 5.93359375 C-3.09945313 5.29550781 -3.05046875 4.65742188 -3 4 C-2.34 4 -1.68 4 -1 4 C-0.67 2.68 -0.34 1.36 0 0 Z " fill="#DDCCC6" transform="translate(373,324)"/>
<path d="M0 0 C4.06885945 2.94740702 6.85866244 6.23503275 9.625 10.375 C10.19734375 11.20257813 10.19734375 11.20257813 10.78125 12.046875 C17 21.18200431 17 21.18200431 17 26 C21.62 26 26.24 26 31 26 C30.51789063 25.03578125 30.03578125 24.0715625 29.5390625 23.078125 C27.02604167 18.05208333 24.51302083 13.02604167 22 8 C23.32 8 24.64 8 26 8 C28.29633824 11.44450737 28.54016485 13.93812283 29 18 C29.66 18 30.32 18 31 18 C31.33 19.32 31.66 20.64 32 22 C33.32 22.33 34.64 22.66 36 23 C35.505 21.9171875 35.505 21.9171875 35 20.8125 C33.99396471 17.98302573 33.83022598 15.97104534 34 13 C34.99 13.33 35.98 13.66 37 14 C37 15.32 37 16.64 37 18 C37.66 18 38.32 18 39 18 C39.6875 20.25 39.6875 20.25 40 23 C38.5625 25.3125 38.5625 25.3125 37 27 C35.35 26.67 33.7 26.34 32 26 C32 26.66 32 27.32 32 28 C31.11957031 28.03738281 30.23914063 28.07476562 29.33203125 28.11328125 C27.58986328 28.21189453 27.58986328 28.21189453 25.8125 28.3125 C24.66394531 28.37050781 23.51539063 28.42851562 22.33203125 28.48828125 C18.82463669 29.02693153 16.94322554 30.10393242 14 32 C13.01 32 12.02 32 11 32 C11 31.01 11 30.02 11 29 C11.66 28.67 12.32 28.34 13 28 C12.855625 27.13375 12.71125 26.2675 12.5625 25.375 C12.19629944 23.17779662 11.90070045 20.96728463 11.6875 18.75 C11.29289295 15.86126124 11.29289295 15.86126124 8.9375 14.625 C8.298125 14.41875 7.65875 14.2125 7 14 C6.67 14.66 6.34 15.32 6 16 C5.67 15.01 5.34 14.02 5 13 C5.99 13 6.98 13 8 13 C7.73323796 11.01508358 7.73323796 11.01508358 7 9 C6.01 8.67 5.02 8.34 4 8 C1.8125 6.1875 1.8125 6.1875 0 4 C0 2.68 0 1.36 0 0 Z " fill="#CDCFD4" transform="translate(249,205)"/>
<path d="M0 0 C1.32 0.33 2.64 0.66 4 1 C4 2.98 4 4.96 4 7 C3.34 7 2.68 7 2 7 C2.185625 7.61875 2.37125 8.2375 2.5625 8.875 C3 11 3 11 2 13 C1.01 13 0.02 13 -1 13 C-1.33 14.32 -1.66 15.64 -2 17 C-4.31 16.34 -6.62 15.68 -9 15 C-9 15.66 -9 16.32 -9 17 C-8.34 17 -7.68 17 -7 17 C-7 17.99 -7 18.98 -7 20 C-8.32 20 -9.64 20 -11 20 C-11.33 20.33 -11.66 20.66 -12 21 C-13.32 21 -14.64 21 -16 21 C-16 21.66 -16 22.32 -16 23 C-17.65 23 -19.3 23 -21 23 C-20 20 -20 20 -17 18 C-16.608125 17.2575 -16.21625 16.515 -15.8125 15.75 C-13.63484887 12.4459776 -11.14855798 10.67986071 -7.9375 8.4296875 C-6.1050769 7.07753658 -4.56297415 5.65089144 -3 4 C-2.34 4.33 -1.68 4.66 -1 5 C-0.67 3.35 -0.34 1.7 0 0 Z " fill="#B64716" transform="translate(338,215)"/>
<path d="M0 0 C1.32 0 2.64 0 4 0 C7.79890178 18.01676956 7.66597409 36.66846737 1 54 C-0.58666992 55.7253418 -0.58666992 55.7253418 -2 57 C-2 55.35 -2 53.7 -2 52 C-1.34 52 -0.68 52 0 52 C0 50.35 0 48.7 0 47 C-0.66 47 -1.32 47 -2 47 C-3.32 42.71 -4.64 38.42 -6 34 C-5.01 33.01 -4.02 32.02 -3 31 C-2.01 31.33 -1.02 31.66 0 32 C-0.66 32.66 -1.32 33.32 -2 34 C-2.16681109 37.08347826 -2.16681109 37.08347826 -2 40 C-0.29159719 38.36587557 0.93453047 37.13093906 2 35 C2.66 35 3.32 35 4 35 C4 25.1 4 15.2 4 5 C3.34 5 2.68 5 2 5 C2 3.68 2 2.36 2 1 C1.34 0.67 0.68 0.34 0 0 Z " fill="#D3CFD0" transform="translate(267,245)"/>
<path d="M0 0 C28.05 0 56.1 0 85 0 C85 0.33 85 0.66 85 1 C79.06 1.33 73.12 1.66 67 2 C67 2.33 67 2.66 67 3 C49.51 3 32.02 3 14 3 C14 2.67 14 2.34 14 2 C7.07 1.505 7.07 1.505 0 1 C0 0.67 0 0.34 0 0 Z " fill="#A7542E" transform="translate(227,150)"/>
<path d="M0 0 C0.495 0.99 0.495 0.99 1 2 C-4.16216577 5.75430238 -7.56014376 7.67081836 -14 7 C-11.36 7.99 -8.72 8.98 -6 10 C-6 10.33 -6 10.66 -6 11 C-7.98 11.33 -9.96 11.66 -12 12 C-11.67 12.66 -11.34 13.32 -11 14 C-14.0832635 15.54163175 -16.60878099 15.29747535 -20 15 C-21.9375 13 -21.9375 13 -23 11 C-21.02 11 -19.04 11 -17 11 C-17 10.01 -17 9.02 -17 8 C-21.95 8 -26.9 8 -32 8 C-32 8.66 -32 9.32 -32 10 C-31.34 10 -30.68 10 -30 10 C-30.33 10.66 -30.66 11.32 -31 12 C-32.37562854 10.71034824 -33.70766393 9.37310707 -35 8 C-35 7.34 -35 6.68 -35 6 C-33.83984375 5.96261719 -32.6796875 5.92523438 -31.484375 5.88671875 C-20.40775939 5.45078117 -10.34058145 4.28846376 0 0 Z " fill="#D9CDCC" transform="translate(329,237)"/>
<path d="M0 0 C0.33 0.66 0.66 1.32 1 2 C3.02463255 2.65213292 3.02463255 2.65213292 5 3 C5 2.34 5 1.68 5 1 C9.875 1.875 9.875 1.875 11 3 C11.66 2.67 12.32 2.34 13 2 C12.5206753 6.31392226 11.2542015 8.16569547 8 11 C8.350625 11.928125 8.70125 12.85625 9.0625 13.8125 C10 17 10 17 9 20 C8.34 19.01 7.68 18.02 7 17 C6.01 16.67 5.02 16.34 4 16 C4 16.66 4 17.32 4 18 C4.99 18.33 5.98 18.66 7 19 C4.36 19 1.72 19 -1 19 C-0.67 17.02 -0.34 15.04 0 13 C1.65 12.67 3.3 12.34 5 12 C4.67 10.68 4.34 9.36 4 8 C4.99 8 5.98 8 7 8 C7 7.34 7 6.68 7 6 C4.69 6 2.38 6 0 6 C0 6.99 0 7.98 0 9 C-0.66 9 -1.32 9 -2 9 C-2 8.34 -2 7.68 -2 7 C-2.66 7 -3.32 7 -4 7 C-4 5.68 -4 4.36 -4 3 C-2.68 3 -1.36 3 0 3 C0 2.01 0 1.02 0 0 Z " fill="#D3CECB" transform="translate(202,233)"/>
<path d="M0 0 C0.99 0 1.98 0 3 0 C3.33 1.65 3.66 3.3 4 5 C4.66 5 5.32 5 6 5 C7.50943534 13.29456703 8.31556393 21.39882911 8.57006836 29.81787109 C8.73318899 34.0072526 9.38634611 37.1606166 11 41 C10.67 41.99 10.34 42.98 10 44 C9.01 44 8.02 44 7 44 C6.9175 44.61875 6.835 45.2375 6.75 45.875 C6 48 6 48 4.1875 49 C3.1046875 49.495 3.1046875 49.495 2 50 C0.62913085 51.29470975 -0.71340837 52.62150897 -2 54 C-2.66 53.67 -3.32 53.34 -4 53 C-3.39671875 52.27683594 -2.7934375 51.55367187 -2.171875 50.80859375 C4.15430519 42.62779599 5.46274839 34.97272531 5.5 24.875 C5.50918457 23.4984021 5.50918457 23.4984021 5.51855469 22.09399414 C5.37367874 14.16203581 3.69727309 7.03965609 0 0 Z " fill="#AE491D" transform="translate(331,172)"/>
<path d="M0 0 C0.66 0 1.32 0 2 0 C2 0.99 2 1.98 2 3 C-5.42857143 6.28571429 -5.42857143 6.28571429 -9 7 C-9 7.66 -9 8.32 -9 9 C-25.15874275 15.39058535 -41.77349721 14.5973189 -58.83105469 14.34332275 C-62.69321852 14.29142852 -66.55555402 14.2691817 -70.41796875 14.24414062 C-77.94577084 14.19111627 -85.47273993 14.1062111 -93 14 C-93 13.67 -93 13.34 -93 13 C-92.29637329 12.99413376 -91.59274658 12.98826752 -90.86779785 12.98222351 C-84.16201568 12.92376641 -77.45653476 12.85139956 -70.75106049 12.76428509 C-67.30558206 12.71999006 -63.86021087 12.68065086 -60.41455078 12.65356445 C-33.68795296 12.91826179 -33.68795296 12.91826179 -8.5625 4.875 C-7.46711914 4.33552734 -7.46711914 4.33552734 -6.34960938 3.78515625 C-2.94973802 2.22781683 -2.94973802 2.22781683 0 0 Z " fill="#C4CFD8" transform="translate(252,335)"/>
<path d="M0 0 C1.87504211 0.00349709 1.87504211 0.00349709 3.78796387 0.00706482 C6.43160803 0.0168111 9.07309496 0.03588165 11.71630859 0.0715332 C15.09915096 0.11680597 18.48122439 0.13155956 21.86434174 0.13527012 C25.09714839 0.14077165 28.32977989 0.1641513 31.5625 0.1875 C33.38291809 0.19554405 33.38291809 0.19554405 35.2401123 0.20375061 C36.36808228 0.21973801 37.49605225 0.2357254 38.65820312 0.25219727 C40.14568054 0.26815697 40.14568054 0.26815697 41.66320801 0.28443909 C44.28125 0.55859375 44.28125 0.55859375 48.28125 2.55859375 C28.48125 2.55859375 8.68125 2.55859375 -11.71875 2.55859375 C-11.71875 3.21859375 -11.71875 3.87859375 -11.71875 4.55859375 C-12.70875 4.55859375 -13.69875 4.55859375 -14.71875 4.55859375 C-14.71875 14.78859375 -14.71875 25.01859375 -14.71875 35.55859375 C-15.70875 36.05359375 -15.70875 36.05359375 -16.71875 36.55859375 C-16.8179511 32.23533342 -16.89037265 27.91268351 -16.93847656 23.58862305 C-16.95853825 22.11910454 -16.98579478 20.64966534 -17.02050781 19.18041992 C-17.06927141 17.06278888 -17.09177161 14.94621688 -17.109375 12.828125 C-17.13032227 11.55557861 -17.15126953 10.28303223 -17.17285156 8.97192383 C-16.71875 5.55859375 -16.71875 5.55859375 -15.48925781 2.63916016 C-10.82418959 -0.86416302 -5.66396693 -0.09115796 0 0 Z " fill="#E6BEAD" transform="translate(255.71875,152.44140625)"/>
<path d="M0 0 C2.64 0 5.28 0 8 0 C8.125 6.75 8.125 6.75 7 9 C4.6875 9.5625 4.6875 9.5625 2 10 C1.34 10.165 0.68 10.33 0 10.5 C-2.31951587 11.07987897 -4.65338104 11.54371298 -7 12 C-7 10.35 -7 8.7 -7 7 C-7.66 6.67 -8.32 6.34 -9 6 C-9.33 6.99 -9.66 7.98 -10 9 C-10 6.36 -10 3.72 -10 1 C-7.625 0.875 -7.625 0.875 -5 1 C-2.53721199 3.46278801 -2.00228745 5.70676982 -1 9 C-0.67 6.03 -0.34 3.06 0 0 Z " fill="#CFB5AB" transform="translate(332,328)"/>
<path d="M0 0 C0 0.66 0 1.32 0 2 C3.3 2 6.6 2 10 2 C10 2.33 10 2.66 10 3 C4.06 3 -1.88 3 -8 3 C-6.68 2.67 -5.36 2.34 -4 2 C-4.97244101 0.7947746 -4.97244101 0.7947746 -6.76586914 0.97827148 C-7.51473389 1.02540283 -8.26359863 1.07253418 -9.03515625 1.12109375 C-10.24848633 1.19360352 -10.24848633 1.19360352 -11.48632812 1.26757812 C-12.33646484 1.32365234 -13.18660156 1.37972656 -14.0625 1.4375 C-15.34350586 1.51581055 -15.34350586 1.51581055 -16.65039062 1.59570312 C-18.76721995 1.72578761 -20.88365244 1.86229971 -23 2 C-22.01 2 -21.02 2 -20 2 C-19.34 4.64 -18.68 7.28 -18 10 C-20.64525803 9.04476793 -22.81123085 8.14300693 -25.0625 6.4375 C-29.18495767 3.37890238 -34.28901057 3.70483247 -39.25 3.4375 C-40.36761719 3.37272461 -40.36761719 3.37272461 -41.5078125 3.30664062 C-43.338349 3.20103275 -45.16915176 3.10005799 -47 3 C-47 2.01 -47 1.02 -47 0 C-41.27101836 -0.16814062 -35.54189172 -0.32864313 -29.8125 -0.48217773 C-27.8648508 -0.53543377 -25.91725675 -0.5907494 -23.96972656 -0.64819336 C-21.16483448 -0.73056379 -18.35982526 -0.80544142 -15.5546875 -0.87890625 C-14.25590164 -0.91945885 -14.25590164 -0.91945885 -12.93087769 -0.96083069 C-8.47811515 -1.06990459 -4.38692086 -0.92668243 0 0 Z " fill="#A04F2C" transform="translate(302,240)"/>
<path d="M0 0 C5.03388344 3.84144928 8.60110478 8.08028741 12.3125 13.1875 C12.84939453 13.91130859 13.38628906 14.63511719 13.93945312 15.38085938 C17.82213185 20.6442637 17.82213185 20.6442637 19 23 C15.00119229 21.14341071 11.7592357 19.59839095 9.8125 15.5 C9.4103125 14.2625 9.4103125 14.2625 9 13 C8.67 12.01 8.34 11.02 8 10 C7.01 10 6.02 10 5 10 C5 11.32 5 12.64 5 14 C4.34 14 3.68 14 3 14 C3 14.66 3 15.32 3 16 C2.34 16 1.68 16 1 16 C1.33 16.99 1.66 17.98 2 19 C2.99 19.33 3.98 19.66 5 20 C5 21.98 5 23.96 5 26 C1.07511907 22.29939798 -2.02215543 18.5093075 -5 14 C-5 13.34 -5 12.68 -5 12 C-3.68 12 -2.36 12 -1 12 C-1 11.34 -1 10.68 -1 10 C0.32 9.34 1.64 8.68 3 8 C2.37240135 5.07120629 1.41377341 2.63904371 0 0 Z " fill="#AE5025" transform="translate(305,256)"/>
<path d="M0 0 C0 2.97 0 5.94 0 9 C0.33 8.67 0.66 8.34 1 8 C1.66 7.67 2.32 7.34 3 7 C3.46523063 5.10466658 3.46523063 5.10466658 3.625 2.9375 C3.74875 1.638125 3.8725 0.33875 4 -1 C4.99 -1 5.98 -1 7 -1 C7.25 6.625 7.25 6.625 5 10 C5.30840599 12.15274948 5.30840599 12.15274948 6 14 C3.75 14.3125 3.75 14.3125 1 14 C-2.22175062 10.77824938 -4.089998 7.1065043 -6 3 C-6.33 4.32 -6.66 5.64 -7 7 C-7.66 7 -8.32 7 -9 7 C-9.33 7.99 -9.66 8.98 -10 10 C-10.66 9.67 -11.32 9.34 -12 9 C-11.690625 8.46375 -11.38125 7.9275 -11.0625 7.375 C-9.82172561 4.6015043 -9.4090325 1.99957163 -9 -1 C-4.80410573 -2.16552619 -4.17908064 -2.08954032 0 0 Z " fill="#D5CAC6" transform="translate(366,330)"/>
<path d="M0 0 C1.65 0.33 3.3 0.66 5 1 C4.34 1.66 3.68 2.32 3 3 C3.65484375 3.37769531 4.3096875 3.75539063 4.984375 4.14453125 C7 6 7 6 7.390625 8.69921875 C7.32101562 10.17841797 7.32101562 10.17841797 7.25 11.6875 C7.21390625 12.68136719 7.1778125 13.67523438 7.140625 14.69921875 C7.07101562 15.83810547 7.07101562 15.83810547 7 17 C6.01 17.33 5.02 17.66 4 18 C3.34 17.67 2.68 17.34 2 17 C2 16.34 2 15.68 2 15 C0.68 14.67 -0.64 14.34 -2 14 C-2 10.7 -2 7.4 -2 4 C-1.34 4 -0.68 4 0 4 C0 2.68 0 1.36 0 0 Z " fill="#DFCBC4" transform="translate(346,322)"/>
<path d="M0 0 C3.52892682 3.12321506 5.2755407 6.21406554 7.1875 10.5 C7.69667969 11.6240625 8.20585937 12.748125 8.73046875 13.90625 C13.17771323 24.7438427 11.99631543 39.16225569 8 50 C6.39453125 51.85546875 6.39453125 51.85546875 5 53 C5 51.02 5 49.04 5 47 C5.33 47 5.66 47 6 47 C8.40929552 41.36566322 8.23079831 36.1310889 8.125 30.125 C8.11146484 28.66320312 8.11146484 28.66320312 8.09765625 27.171875 C8.07421623 24.78099272 8.04140442 22.39062739 8 20 C7.34 20 6.68 20 6 20 C6 19.34 6 18.68 6 18 C5.34 18 4.68 18 4 18 C3.67 16.35 3.34 14.7 3 13 C3.66 13.33 4.32 13.66 5 14 C5 14.66 5 15.32 5 16 C5.66 16 6.32 16 7 16 C6.4946875 15.01257813 5.989375 14.02515625 5.46875 13.0078125 C4.81228987 11.71364824 4.15605133 10.41937155 3.5 9.125 C3.16613281 8.47402344 2.83226562 7.82304687 2.48828125 7.15234375 C0 2.2265625 0 2.2265625 0 0 Z " fill="#B04D21" transform="translate(342,166)"/>
<path d="M0 0 C1.14082031 0.00257813 2.28164062 0.00515625 3.45703125 0.0078125 C4.58496094 0.00523437 5.71289062 0.00265625 6.875 0 C10.09368492 0.12593244 13.10933197 0.52858623 16.26953125 1.1328125 C16.26953125 3.1128125 16.26953125 5.0928125 16.26953125 7.1328125 C15.47417969 6.92785156 14.67882812 6.72289062 13.859375 6.51171875 C-0.8052049 3.23375383 -15.76939584 3.38789485 -30.73046875 3.1328125 C-30.73046875 2.8028125 -30.73046875 2.4728125 -30.73046875 2.1328125 C-29.51145874 2.09522827 -29.51145874 2.09522827 -28.26782227 2.05688477 C-24.60936123 1.94132132 -20.95118347 1.81841666 -17.29296875 1.6953125 C-16.01357422 1.65599609 -14.73417969 1.61667969 -13.41601562 1.57617188 C-11.59360352 1.51333008 -11.59360352 1.51333008 -9.734375 1.44921875 C-8.60845947 1.41256104 -7.48254395 1.37590332 -6.32250977 1.33813477 C-3.28465761 1.09749865 -3.0899856 0.15029973 0 0 Z " fill="#6895B0" transform="translate(209.73046875,183.8671875)"/>
<path d="M0 0 C6.60155296 5.86804708 10.53825369 13.7074469 11.19018555 22.59179688 C11.26763886 25.50143459 11.27293255 28.4019776 11.25 31.3125 C11.25773437 32.31345703 11.26546875 33.31441406 11.2734375 34.34570312 C11.27085937 35.30025391 11.26828125 36.25480469 11.265625 37.23828125 C11.26336914 38.10493408 11.26111328 38.97158691 11.25878906 39.86450195 C11 42 11 42 9 44 C8.98018066 43.19780029 8.96036133 42.39560059 8.93994141 41.5690918 C8.84480505 37.94155823 8.7350792 34.31460955 8.625 30.6875 C8.5940625 29.42486328 8.563125 28.16222656 8.53125 26.86132812 C8.49257813 25.65283203 8.45390625 24.44433594 8.4140625 23.19921875 C8.36693115 21.52605591 8.36693115 21.52605591 8.31884766 19.8190918 C8.194751 16.79631214 8.194751 16.79631214 6 14 C6 12.68 6 11.36 6 10 C5.34 10 4.68 10 4 10 C3.67 13.3 3.34 16.6 3 20 C2.67 20 2.34 20 2 20 C1.97301811 18.37509046 1.95361243 16.75005367 1.9375 15.125 C1.92589844 14.22007812 1.91429687 13.31515625 1.90234375 12.3828125 C2 10 2 10 3 8 C2.01 8 1.02 8 0 8 C0 5.36 0 2.72 0 0 Z " fill="#E0C4BA" transform="translate(326,166)"/>
<path d="M0 0 C2.97 0 5.94 0 9 0 C11.09230769 4.43076923 11.09230769 4.43076923 10.625 7.3125 C10.41875 7.869375 10.2125 8.42625 10 9 C10 8.34 10 7.68 10 7 C9.01 7.495 9.01 7.495 8 8 C8 9.98 8 11.96 8 14 C5.36 14 2.72 14 0 14 C-0.33 11.69 -0.66 9.38 -1 7 C0.98 6.01 2.96 5.02 5 4 C5 3.34 5 2.68 5 2 C3.68 2.33 2.36 2.66 1 3 C0.67 2.01 0.34 1.02 0 0 Z " fill="#B9BABD" transform="translate(201,258)"/>
<path d="M0 0 C3.54865549 1.97147527 6.18600451 4.08979954 9 7 C5.95682614 7.13558695 2.91974438 7.23437239 -0.125 7.3125 C-0.9809375 7.35439453 -1.836875 7.39628906 -2.71875 7.43945312 C-7.16346665 7.52492845 -10.09055296 7.42377927 -13.6171875 4.54296875 C-16 2 -16 2 -16 1 C-14.04196493 0.94610913 -12.08351091 0.90725783 -10.125 0.875 C-8.48917969 0.84019531 -8.48917969 0.84019531 -6.8203125 0.8046875 C-4 1 -4 1 -2 3 C-1.34 2.67 -0.68 2.34 0 2 C0 1.34 0 0.68 0 0 Z " fill="#AE4E22" transform="translate(348,307)"/>
<path d="M0 0 C1.2065625 0.0309375 1.2065625 0.0309375 2.4375 0.0625 C2.4375 1.3825 2.4375 2.7025 2.4375 4.0625 C-25.2825 3.7325 -53.0025 3.4025 -81.5625 3.0625 C-81.5625 2.7325 -81.5625 2.4025 -81.5625 2.0625 C-80.58753067 2.05219254 -79.61256134 2.04188507 -78.60804749 2.03126526 C-69.44013686 1.93370055 -60.27229667 1.83098298 -51.10450077 1.72316074 C-46.39073641 1.66788952 -41.6769659 1.61446295 -36.96313477 1.56518555 C-32.41789096 1.51760376 -27.87272504 1.46526346 -23.32757378 1.40955925 C-21.58957281 1.38910757 -19.85155046 1.37039924 -18.11351204 1.35342598 C-15.68765623 1.32944396 -13.26194899 1.2993814 -10.83618164 1.26782227 C-9.74753815 1.25918907 -9.74753815 1.25918907 -8.63690186 1.25038147 C-5.31787897 1.20098149 -3.04238186 0.07420444 0 0 Z " fill="#E6CAC0" transform="translate(307.5625,145.9375)"/>
<path d="M0 0 C6.93645997 6.50293123 12.58511269 14.21609949 18 22 C17.34 22.33 16.68 22.66 16 23 C16 22.34 16 21.68 16 21 C15.360625 20.896875 14.72125 20.79375 14.0625 20.6875 C13.0415625 20.3471875 13.0415625 20.3471875 12 20 C11.67 19.01 11.34 18.02 11 17 C9.62514468 15.45833358 9.62514468 15.45833358 8 14 C7 13 6 12 5 11 C5 12.98 5 14.96 5 17 C4.01 17 3.02 17 2 17 C1.67 16.01 1.34 15.02 1 14 C0.34 13.67 -0.32 13.34 -1 13 C-1 10 -1 10 1 7.8125 C1.66 7.214375 2.32 6.61625 3 6 C2.2575 5.071875 2.2575 5.071875 1.5 4.125 C0 2 0 2 0 0 Z " fill="#DCCAC4" transform="translate(305,277)"/>
<path d="M0 0 C5.13829895 4.38266675 8.23886797 9.87047667 11 16 C11 16.99 11 17.98 11 19 C6.38 19 1.76 19 -3 19 C-5.31 14.05 -7.62 9.1 -10 4 C-9.34 4 -8.68 4 -8 4 C-8 4.66 -8 5.32 -8 6 C-7.34 6 -6.68 6 -6 6 C-6 6.66 -6 7.32 -6 8 C-5.34 8.33 -4.68 8.66 -4 9 C-3.10199905 11.62194106 -2.60232897 14.28951964 -2 17 C0.97 17 3.94 17 7 17 C6.34 14.03 5.68 11.06 5 8 C4.34 8 3.68 8 3 8 C0 2.25 0 2.25 0 0 Z " fill="#6C94AD" transform="translate(269,212)"/>
<path d="M0 0 C0.96494385 0.16298584 1.9298877 0.32597168 2.92407227 0.49389648 C7.36174049 1.12474932 11.73981039 1.12592845 16.21484375 1.09765625 C17.07058487 1.0962413 17.92632599 1.09482635 18.80799866 1.09336853 C21.51786931 1.0878099 24.22765468 1.07526525 26.9375 1.0625 C28.78450401 1.05747965 30.63150932 1.05291768 32.47851562 1.04882812 C36.98570951 1.03785405 41.49284034 1.0206183 46 1 C46 1.33 46 1.66 46 2 C36.29380931 3.8209269 26.67679899 4.27003971 16.8125 4.375 C15.61842529 4.40078125 14.42435059 4.4265625 13.1940918 4.453125 C11.49893433 4.45699219 11.49893433 4.45699219 9.76953125 4.4609375 C8.24743042 4.47326416 8.24743042 4.47326416 6.69458008 4.48583984 C3.33020299 3.87923385 2.14951998 2.58454569 0 0 Z " fill="#BBC6D1" transform="translate(172,342)"/>
<path d="M0 0 C-1.32962072 0.48937429 -2.66399425 0.96583581 -4 1.4375 C-5.11375 1.83775391 -5.11375 1.83775391 -6.25 2.24609375 C-14.37336013 4.47309447 -22.64565497 4.11984239 -31 4.0625 C-32.25167969 4.05798828 -33.50335938 4.05347656 -34.79296875 4.04882812 C-37.86202941 4.03711415 -40.93098907 4.02071073 -44 4 C-44 3.67 -44 3.34 -44 3 C-42.85660156 2.95101562 -41.71320313 2.90203125 -40.53515625 2.8515625 C-39.04424527 2.77654811 -37.55336108 2.70099972 -36.0625 2.625 C-35.30775391 2.5940625 -34.55300781 2.563125 -33.77539062 2.53125 C-31.84492605 2.4273685 -29.92057919 2.22104386 -28 2 C-27.67 1.34 -27.34 0.68 -27 0 C-26.44538086 0.00523682 -25.89076172 0.01047363 -25.31933594 0.01586914 C-22.79623557 0.03671031 -20.27315336 0.04968282 -17.75 0.0625 C-16.87730469 0.07087891 -16.00460937 0.07925781 -15.10546875 0.08789062 C-14.26113281 0.09111328 -13.41679687 0.09433594 -12.546875 0.09765625 C-11.38430176 0.10551147 -11.38430176 0.10551147 -10.19824219 0.11352539 C-1.10742536 -0.35595815 -1.10742536 -0.35595815 0 0 Z " fill="#D8BEB5" transform="translate(313,236)"/>
<path d="M0 0 C1.32 0 2.64 0 4 0 C5.71546883 7.87884743 6.31020771 15.38471889 6.25 23.4375 C6.25773437 24.49904297 6.26546875 25.56058594 6.2734375 26.65429688 C6.27085937 27.67458984 6.26828125 28.69488281 6.265625 29.74609375 C6.26336914 30.66060303 6.26111328 31.5751123 6.25878906 32.51733398 C6 35 6 35 4 39 C4 27.78 4 16.56 4 5 C3.34 5 2.68 5 2 5 C2 3.68 2 2.36 2 1 C1.34 0.67 0.68 0.34 0 0 Z " fill="#C5CDD7" transform="translate(267,245)"/>
<path d="M0 0 C3.14737182 0.69941596 6.02588876 1.76078698 9 3 C9 3.99 9 4.98 9 6 C10.65 6 12.3 6 14 6 C13.67 7.32 13.34 8.64 13 10 C12.01 9.67 11.02 9.34 10 9 C10 8.34 10 7.68 10 7 C6.04 7 2.08 7 -2 7 C-1 2 -1 2 0 0 Z " fill="#B74512" transform="translate(334,301)"/>
<path d="M0 0 C1.65 0 3.3 0 5 0 C6.10251165 3.30753495 7.05066101 6.64566891 8 10 C10.64 10 13.28 10 16 10 C15.67 11.98 15.34 13.96 15 16 C15.66 16.33 16.32 16.66 17 17 C17 18.65 17 20.3 17 22 C13.23188025 18.38071083 9.97333212 14.59296613 6.8125 10.4375 C6.37486328 9.87353516 5.93722656 9.30957031 5.48632812 8.72851562 C3.34511207 5.93349315 1.41509047 3.23336313 0 0 Z " fill="#DEC4BB" transform="translate(319,272)"/>
<path d="M0 0 C0.33 0 0.66 0 1 0 C1.51340519 7.08784383 0.94599554 11.0810067 -3 17 C-3.309375 17.86625 -3.61875 18.7325 -3.9375 19.625 C-5.34845348 22.77889602 -7.53961009 24.5996196 -10 27 C-10.4125 27.886875 -10.825 28.77375 -11.25 29.6875 C-13.97922444 33.29397515 -17.68477883 33.39387879 -22 34 C-21.319375 33.46375 -20.63875 32.9275 -19.9375 32.375 C-18.968125 31.59125 -17.99875 30.8075 -17 30 C-16.45730469 29.59910156 -15.91460937 29.19820312 -15.35546875 28.78515625 C-5.80644291 21.34855599 -1.94893926 11.67507422 0 0 Z " fill="#E1BFB1" transform="translate(352,203)"/>
<path d="M0 0 C0.99 0 1.98 0 3 0 C1.42491141 3.66379303 -0.84193573 6.29851305 -3.5 9.25 C-4.2940625 10.14203125 -5.088125 11.0340625 -5.90625 11.953125 C-8 14 -8 14 -10 14 C-10.33 13.01 -10.66 12.02 -11 11 C-10.360625 10.87625 -9.72125 10.7525 -9.0625 10.625 C-8.381875 10.41875 -7.70125 10.2125 -7 10 C-6.67 9.34 -6.34 8.68 -6 8 C-6.99 8 -7.98 8 -9 8 C-9 6.35 -9 4.7 -9 3 C-6.03 3 -3.06 3 0 3 C0 2.01 0 1.02 0 0 Z " fill="#D1CED0" transform="translate(255,316)"/>
<path d="M0 0 C-1.05731486 3.23624075 -2.09004055 4.05575588 -5.046875 5.88671875 C-6.2750828 6.49949915 -7.50977637 7.09941875 -8.75 7.6875 C-9.3584375 7.99494141 -9.966875 8.30238281 -10.59375 8.61914062 C-14.37799801 10.46679163 -17.82131229 11.51932273 -22 12 C-22.33 11.34 -22.66 10.68 -23 10 C-22.34 10 -21.68 10 -21 10 C-21 9.34 -21 8.68 -21 8 C-21.66 7.67 -22.32 7.34 -23 7 C-18.05 6.67 -13.1 6.34 -8 6 C-8 5.34 -8 4.68 -8 4 C-6.68 3.67 -5.36 3.34 -4 3 C-4 2.34 -4 1.68 -4 1 C-2 0 -2 0 0 0 Z " fill="#C9CED5" transform="translate(242,331)"/>
<path d="M0 0 C2.97 0 5.94 0 9 0 C9 0.66 9 1.32 9 2 C12.465 1.505 12.465 1.505 16 1 C15.67 1.99 15.34 2.98 15 4 C16.32 3.67 17.64 3.34 19 3 C19.33 3.99 19.66 4.98 20 6 C20.99 6 21.98 6 23 6 C23 6.99 23 7.98 23 9 C23.66 9 24.32 9 25 9 C24.67 9.66 24.34 10.32 24 11 C23.10539062 10.52949219 22.21078125 10.05898437 21.2890625 9.57421875 C14.33825267 5.97548369 7.65543204 2.85212066 0 1 C0 0.67 0 0.34 0 0 Z " fill="#AD542E" transform="translate(300,153)"/>
<path d="M0 0 C0.33 2.64 0.66 5.28 1 8 C0.566875 7.525625 0.13375 7.05125 -0.3125 6.5625 C-2.02309613 4.76313043 -2.02309613 4.76313043 -5 4 C-5 4.66 -5 5.32 -5 6 C-4.01 6.33 -3.02 6.66 -2 7 C-4.64 7 -7.28 7 -10 7 C-9.67 5.02 -9.34 3.04 -9 1 C-3.375 -1.125 -3.375 -1.125 0 0 Z " fill="#B2B9C1" transform="translate(211,245)"/>
<path d="M0 0 C1.9375 0.3125 1.9375 0.3125 4 1 C4.33 1.99 4.66 2.98 5 4 C5.33 4.66 5.66 5.32 6 6 C3.03 6.66 0.06 7.32 -3 8 C-3 9.32 -3 10.64 -3 12 C-2.34 12 -1.68 12 -1 12 C-1.33 12.66 -1.66 13.32 -2 14 C-4.31 13.01 -6.62 12.02 -9 11 C-9 10.34 -9 9.68 -9 9 C-5.66666667 7.33333333 -2.33333333 5.66666667 1 4 C0.34 3.67 -0.32 3.34 -1 3 C-0.67 2.01 -0.34 1.02 0 0 Z " fill="#D3CCCD" transform="translate(210,198)"/>
<path d="M0 0 C2.5 0.125 2.5 0.125 3.5 1.125 C3.54092937 3.45797433 3.54241723 5.79205225 3.5 8.125 C0.625 8.25 0.625 8.25 -2.5 8.125 C-3.16 7.465 -3.82 6.805 -4.5 6.125 C-3.77607362 0.18880368 -3.77607362 0.18880368 0 0 Z " fill="#C8AA9B" transform="translate(393.5,328.875)"/>
<path d="M0 0 C0 2.97 0 5.94 0 9 C-1.32 7.68 -2.64 6.36 -4 5 C-4.33 6.32 -4.66 7.64 -5 9 C-5.66 9 -6.32 9 -7 9 C-7.33 9.99 -7.66 10.98 -8 12 C-8.66 11.67 -9.32 11.34 -10 11 C-9.690625 10.46375 -9.38125 9.9275 -9.0625 9.375 C-7.82172561 6.6015043 -7.4090325 3.99957163 -7 1 C-2.25 0 -2.25 0 0 0 Z " fill="#BA9B93" transform="translate(364,328)"/>
<path d="M0 0 C0.66 0 1.32 0 2 0 C2.20496094 0.56589844 2.40992188 1.13179687 2.62109375 1.71484375 C2.89050781 2.44832031 3.15992188 3.18179688 3.4375 3.9375 C3.70433594 4.66839844 3.97117187 5.39929688 4.24609375 6.15234375 C4.85386948 7.98305678 4.85386948 7.98305678 6 9 C6.09900199 10.97712807 6.12970773 12.95790038 6.125 14.9375 C6.12757813 16.01902344 6.13015625 17.10054687 6.1328125 18.21484375 C6 21 6 21 5 23 C4.34 23 3.68 23 3 23 C2.92652344 21.515 2.92652344 21.515 2.8515625 20 C2.47596893 13.14476671 2.02153511 6.60368135 0 0 Z " fill="#E3C8BD" transform="translate(350,179)"/>
<path d="M0 0 C4.54075781 4.14010271 7.71842138 8.82390176 11 14 C9 15 9 15 5.9375 14.25 C4.968125 13.8375 3.99875 13.425 3 13 C2.67 12.01 2.34 11.02 2 10 C2.99 10 3.98 10 5 10 C5 9.01 5 8.02 5 7 C3.35 6.67 1.7 6.34 0 6 C0 4.02 0 2.04 0 0 Z " fill="#DCCAC1" transform="translate(294,262)"/>
<path d="M0 0 C1.65 0 3.3 0 5 0 C4.39655166 4.08258878 3.05381582 7.1471303 1.0625 10.75 C0.53785156 11.71421875 0.01320313 12.6784375 -0.52734375 13.671875 C-2 16 -2 16 -4 17 C-3.67 15.02 -3.34 13.04 -3 11 C-2.34 11 -1.68 11 -1 11 C-0.67 7.37 -0.34 3.74 0 0 Z " fill="#5F94B1" transform="translate(276,298)"/>
<path d="M0 0 C1.4540625 0.0309375 1.4540625 0.0309375 2.9375 0.0625 C2.298125 0.289375 1.65875 0.51625 1 0.75 C-1.33443661 1.91500896 -1.33443661 1.91500896 -1.8125 4.6875 C-1.895 5.47125 -1.9775 6.255 -2.0625 7.0625 C0.28283951 7.83206136 0.28283951 7.83206136 2.9375 8.0625 C4.7729799 6.72871425 4.7729799 6.72871425 5.9375 5.0625 C6.0625 7.9375 6.0625 7.9375 5.9375 11.0625 C5.2775 11.7225 4.6175 12.3825 3.9375 13.0625 C-2.9375 10.1875 -2.9375 10.1875 -4.0625 9.0625 C-4.1953125 7.25 -4.1953125 7.25 -4.1875 5.0625 C-4.19007813 4.340625 -4.19265625 3.61875 -4.1953125 2.875 C-3.96314697 -0.29337667 -3.23031119 0.06592472 0 0 Z " fill="#DEC7BF" transform="translate(392.0625,327.9375)"/>
<path d="M0 0 C0.66 0 1.32 0 2 0 C2 0.99 2 1.98 2 3 C7.28 3 12.56 3 18 3 C18 3.66 18 4.32 18 5 C15.20865148 5.19425873 12.41716313 5.38069517 9.625 5.5625 C8.8309375 5.61857422 8.036875 5.67464844 7.21875 5.73242188 C1.2265625 6.11328125 1.2265625 6.11328125 -1 5 C-0.67 3.35 -0.34 1.7 0 0 Z " fill="#DDBDB2" transform="translate(253,240)"/>
<path d="M0 0 C5.80342274 1.48805711 10.17590879 4.59097555 15 8 C14.34 8.66 13.68 9.32 13 10 C11.70590408 9.54857119 10.41478941 9.08858979 9.125 8.625 C8.40570313 8.36976563 7.68640625 8.11453125 6.9453125 7.8515625 C5 7 5 7 3 5 C3 4.01 3 3.02 3 2 C2.01 2 1.02 2 0 2 C0 1.34 0 0.68 0 0 Z " fill="#E0C9C4" transform="translate(311,157)"/>
<path d="M0 0 C2.475 0.99 2.475 0.99 5 2 C4.01 2.33 3.02 2.66 2 3 C2 4.65 2 6.3 2 8 C2.99 8 3.98 8 5 8 C5.61875 8.66 6.2375 9.32 6.875 10 C8.85077297 12.27138797 8.85077297 12.27138797 11.75 12.25 C12.86375 12.12625 12.86375 12.12625 14 12 C13.34 13.65 12.68 15.3 12 17 C9.33333333 15 6.66666667 13 4 11 C3.2575 10.525625 2.515 10.05125 1.75 9.5625 C0 8 0 8 -0.390625 5.95703125 C-0.26041667 3.97135417 -0.13020833 1.98567708 0 0 Z " fill="#5F93AF" transform="translate(239,189)"/>
<path d="M0 0 C0.33 0 0.66 0 1 0 C1.19590444 3.47874757 1.38031592 6.95800904 1.5625 10.4375 C1.61857422 11.43072266 1.67464844 12.42394531 1.73242188 13.44726562 C1.78076172 14.39150391 1.82910156 15.33574219 1.87890625 16.30859375 C1.9260376 17.18314209 1.97316895 18.05769043 2.02172852 18.95874023 C2 21 2 21 1 22 C0.63239269 24.32817964 0.29758419 26.6618385 0 29 C-0.66 29 -1.32 29 -2 29 C-1.34 19.43 -0.68 9.86 0 0 Z " fill="#BECAD4" transform="translate(287,261)"/>
<path d="M0 0 C3.89271432 2.167295 7.03709814 4.67413029 10.3125 7.6875 C11.19550781 8.49574219 12.07851563 9.30398437 12.98828125 10.13671875 C13.65214844 10.75160156 14.31601562 11.36648437 15 12 C14.01 12.495 14.01 12.495 13 13 C12.67 13.66 12.34 14.32 12 15 C11.7525 14.030625 11.505 13.06125 11.25 12.0625 C10.63125 10.5465625 10.63125 10.5465625 10 9 C7.96756452 8.03122943 7.96756452 8.03122943 6 8 C6 7.34 6 6.68 6 6 C3.69 5.34 1.38 4.68 -1 4 C-0.67 2.68 -0.34 1.36 0 0 Z " fill="#6596B1" transform="translate(253,197)"/>
<path d="M0 0 C3.99012371 0.55989303 6.5255052 1.75669768 9.8125 4.0625 C10.60269531 4.61035156 11.39289063 5.15820312 12.20703125 5.72265625 C12.79871094 6.14417969 13.39039063 6.56570312 14 7 C13.01 7.495 13.01 7.495 12 8 C11.071875 7.484375 10.14375 6.96875 9.1875 6.4375 C6.10689976 4.63680568 6.10689976 4.63680568 3.125 5.8125 C2.42375 6.204375 1.7225 6.59625 1 7 C0.67 4.69 0.34 2.38 0 0 Z " fill="#688EA5" transform="translate(271,244)"/>
<path d="M0 0 C0.99 0.33 1.98 0.66 3 1 C2.67 1.99 2.34 2.98 2 4 C-1.01490557 5.00496852 -3.04181692 5.10335303 -6.1875 5.0625 C-7.08855469 5.05347656 -7.98960937 5.04445312 -8.91796875 5.03515625 C-9.60503906 5.02355469 -10.29210937 5.01195312 -11 5 C-11 4.34 -11 3.68 -11 3 C-11.66 2.67 -12.32 2.34 -13 2 C-12.14535156 1.93941406 -11.29070312 1.87882813 -10.41015625 1.81640625 C-8.75306641 1.69072266 -8.75306641 1.69072266 -7.0625 1.5625 C-5.96035156 1.48128906 -4.85820312 1.40007812 -3.72265625 1.31640625 C-1.08890097 1.29581916 -1.08890097 1.29581916 0 0 Z " fill="#B14817" transform="translate(313,237)"/>
<path d="M0 0 C3 0.125 3 0.125 4 1.125 C4.04063832 2.79117115 4.042721 4.45888095 4 6.125 C1.36 6.125 -1.28 6.125 -4 6.125 C-4.042721 4.45888095 -4.04063832 2.79117115 -4 1.125 C-3 0.125 -3 0.125 0 0 Z " fill="#A2AEB9" transform="translate(205,216.875)"/>
<path d="M0 0 C4.8 3.44615385 4.8 3.44615385 5.8125 6.25 C5.874375 6.8275 5.93625 7.405 6 8 C5.01 8.33 4.02 8.66 3 9 C2.67 9.99 2.34 10.98 2 12 C1.34 12 0.68 12 0 12 C0 8.04 0 4.08 0 0 Z " fill="#DCCBC8" transform="translate(289,257)"/>
<path d="M0 0 C0.33 0 0.66 0 1 0 C1.8508802 24.54946936 1.8508802 24.54946936 -3.60546875 30.85546875 C-4.06566406 31.23316406 -4.52585937 31.61085937 -5 32 C-5 30.02 -5 28.04 -5 26 C-4.67 26 -4.34 26 -4 26 C-1.12295975 17.29650089 -0.35609361 9.0988058 0 0 Z " fill="#A75A38" transform="translate(352,187)"/>
<path d="M0 0 C0.99 0 1.98 0 3 0 C3.33 1.65 3.66 3.3 4 5 C4.66 5 5.32 5 6 5 C6.94220126 10.52708611 7.12116149 15.83758352 7.0625 21.4375 C7.05798828 22.26443359 7.05347656 23.09136719 7.04882812 23.94335938 C7.03715811 25.96227146 7.01922718 27.98114574 7 30 C6.67 30 6.34 30 6 30 C5.94392578 28.44152344 5.94392578 28.44152344 5.88671875 26.8515625 C5.46265335 17.22400694 4.51799608 8.68394052 0 0 Z " fill="#AC5F3D" transform="translate(331,172)"/>
<path d="M0 0 C1.5 1.375 1.5 1.375 3 3 C3 3.66 3 4.32 3 5 C4.65 5.66 6.3 6.32 8 7 C7.67 7.66 7.34 8.32 7 9 C5.98292969 8.49339844 5.98292969 8.49339844 4.9453125 7.9765625 C-1.31773513 4.9751574 -7.12532141 2.99913984 -14 2 C-14 1.67 -14 1.34 -14 1 C-12.73542969 1.01740234 -12.73542969 1.01740234 -11.4453125 1.03515625 C-10.34960938 1.04417969 -9.25390625 1.05320313 -8.125 1.0625 C-6.48917969 1.07990234 -6.48917969 1.07990234 -4.8203125 1.09765625 C-2.04822454 1.19744303 -2.04822454 1.19744303 0 0 Z " fill="#DEBBB0" transform="translate(326,149)"/>
<path d="M0 0 C5.82438396 0.11648768 10.26423714 1.8429604 15.4375 4.4375 C16.06479004 4.75017822 16.69208008 5.06285645 17.33837891 5.38500977 C21.86510063 7.73020126 21.86510063 7.73020126 23 10 C20.625 10.1875 20.625 10.1875 18 10 C17.34 9.01 16.68 8.02 16 7 C13.62167745 5.47107836 11.81110023 4.9685167 9 4.5 C5.04607555 3.84101259 2.82421542 2.82421542 0 0 Z " fill="#A85129" transform="translate(314,151)"/>
<path d="M0 0 C3.93355482 3.31893688 3.93355482 3.31893688 4.25 6.5625 C4.1675 7.366875 4.085 8.17125 4 9 C4 9.99 4 10.98 4 12 C1.0625 11.1875 1.0625 11.1875 -2 10 C-2.33 9.01 -2.66 8.02 -3 7 C-2.67 6.34 -2.34 5.68 -2 5 C-1.34 5 -0.68 5 0 5 C0 3.35 0 1.7 0 0 Z " fill="#D7CDCA" transform="translate(359,332)"/>
<path d="M0 0 C3 3 3 3 3.26464844 5.32495117 C3.2134082 6.22189697 3.16216797 7.11884277 3.109375 8.04296875 C3.05910156 9.03490234 3.00882812 10.02683594 2.95703125 11.04882812 C2.88871094 12.08458984 2.82039063 13.12035156 2.75 14.1875 C2.69714844 15.20392578 2.64429688 16.22035156 2.58984375 17.26757812 C2.27802236 22.88398892 1.77394748 28.42891255 1 34 C0.67 34 0.34 34 0 34 C0 22.78 0 11.56 0 0 Z " fill="#6B95AF" transform="translate(285,252)"/>
<path d="M0 0 C3 1 3 1 4 3 C4.33 2.01 4.66 1.02 5 0 C5.66 0 6.32 0 7 0 C7 2.64 7 5.28 7 8 C6.01 7.67 5.02 7.34 4 7 C3.67 6.34 3.34 5.68 3 5 C2.67 5.99 2.34 6.98 2 8 C1.34 8 0.68 8 0 8 C0 5.36 0 2.72 0 0 Z " fill="#B28677" transform="translate(377,329)"/>
<path d="M0 0 C3 1 3 1 4 3 C4.33 2.01 4.66 1.02 5 0 C5.66 0 6.32 0 7 0 C7 2.64 7 5.28 7 8 C6.01 7.67 5.02 7.34 4 7 C3.67 6.34 3.34 5.68 3 5 C2.67 5.99 2.34 6.98 2 8 C1.34 8 0.68 8 0 8 C0 5.36 0 2.72 0 0 Z " fill="#B28777" transform="translate(345,329)"/>
<path d="M0 0 C5.61 0 11.22 0 17 0 C15 2 15 2 12.1796875 2.1953125 C11.08914063 2.17210937 9.99859375 2.14890625 8.875 2.125 C7.77929688 2.10695312 6.68359375 2.08890625 5.5546875 2.0703125 C4.71164062 2.04710937 3.86859375 2.02390625 3 2 C3 2.66 3 3.32 3 4 C3.66 4 4.32 4 5 4 C4.67 4.66 4.34 5.32 4 6 C2.62437146 4.71034824 1.29233607 3.37310707 0 2 C0 1.34 0 0.68 0 0 Z " fill="#E3BAA9" transform="translate(294,243)"/>
<path d="M0 0 C1.32 0 2.64 0 4 0 C6.29633824 3.44450737 6.54016485 5.93812283 7 10 C7.66 10 8.32 10 9 10 C9.33 11.65 9.66 13.3 10 15 C9.34 15 8.68 15 8 15 C6.30859375 12.48046875 6.30859375 12.48046875 4.4375 9.1875 C3.50744141 7.56908203 3.50744141 7.56908203 2.55859375 5.91796875 C1 3 1 3 0 0 Z " fill="#C4CDD7" transform="translate(271,213)"/>
<path d="M0 0 C3.82097239 0.53069061 6.06171403 1.49701566 9 4 C6.36 5.65 3.72 7.3 1 9 C0 6 0 6 0 4 C0.99 4 1.98 4 3 4 C3 3.34 3 2.68 3 2 C2.01 2 1.02 2 0 2 C0 1.34 0 0.68 0 0 Z " fill="#DDC8C2" transform="translate(314,226)"/>
<path d="M0 0 C1.98 0 3.96 0 6 0 C6 0.66 6 1.32 6 2 C8.31 2.33 10.62 2.66 13 3 C13 3.66 13 4.32 13 5 C6.07 4.505 6.07 4.505 -1 4 C-0.67 2.68 -0.34 1.36 0 0 Z " fill="#C4CBD2" transform="translate(212,180)"/>
<path d="M0 0 C0.99 0.33 1.98 0.66 3 1 C2.51675181 6.15464734 -0.18610761 9.81550319 -3 14 C-4.0625 12.1875 -4.0625 12.1875 -5 10 C-4.67 9.01 -4.34 8.02 -4 7 C-2.68 7 -1.36 7 0 7 C0 4.69 0 2.38 0 0 Z " fill="#C7CDD5" transform="translate(262,302)"/>
<path d="M0 0 C0.33 0.66 0.66 1.32 1 2 C-2.38667214 4.73393365 -5.30299738 6.93269678 -9.7578125 7.109375 C-12.2057099 6.84436047 -14.58949044 6.49889645 -17 6 C-17 5.67 -17 5.34 -17 5 C-16.19175781 4.80664062 -15.38351562 4.61328125 -14.55078125 4.4140625 C-13.48214844 4.15367187 -12.41351563 3.89328125 -11.3125 3.625 C-10.25675781 3.36976563 -9.20101563 3.11453125 -8.11328125 2.8515625 C-5.29593234 2.08094511 -2.68331675 1.14501457 0 0 Z " fill="#DEC0B4" transform="translate(329,237)"/>
<path d="M0 0 C2.31 0.66 4.62 1.32 7 2 C7 2.66 7 3.32 7 4 C7.66 4.33 8.32 4.66 9 5 C9 4.34 9 3.68 9 3 C9.66 3 10.32 3 11 3 C11 3.99 11 4.98 11 6 C10.34 6 9.68 6 9 6 C9 6.66 9 7.32 9 8 C9.66 8 10.32 8 11 8 C10.67 8.66 10.34 9.32 10 10 C8.70450101 8.90033225 7.41373929 7.79508199 6.125 6.6875 C5.40570313 6.07261719 4.68640625 5.45773437 3.9453125 4.82421875 C2 3 2 3 0 0 Z " fill="#DDC2B6" transform="translate(341,299)"/>
<path d="M0 0 C3.3 0.33 6.6 0.66 10 1 C8.02 1.99 8.02 1.99 6 3 C6 3.99 6 4.98 6 6 C6.66 6.66 7.32 7.32 8 8 C5 8 5 8 3.3125 6.6875 C2 5 2 5 2 2 C1.34 2 0.68 2 0 2 C0 1.34 0 0.68 0 0 Z " fill="#DCC8C3" transform="translate(297,245)"/>
<path d="M0 0 C0.33 0 0.66 0 1 0 C0.979375 0.9075 0.95875 1.815 0.9375 2.75 C0.9889755 5.42672588 1.2215017 7.46988052 2 10 C1.4225 10.2475 0.845 10.495 0.25 10.75 C-2.3002997 12.16683317 -4.01785701 13.87627537 -6 16 C-6.66 15.67 -7.32 15.34 -8 15 C-7.4225 14.38125 -6.845 13.7625 -6.25 13.125 C-3.30761693 9.03835685 -1.71808732 4.70646259 0 0 Z " fill="#AF5632" transform="translate(335,210)"/>
<path d="M0 0 C0.33 1.32 0.66 2.64 1 4 C0.01 4 -0.98 4 -2 4 C-2.66 5.32 -3.32 6.64 -4 8 C-3.01 9.485 -3.01 9.485 -2 11 C-4.64 10.67 -7.28 10.34 -10 10 C-6.66666667 6.66666667 -3.33333333 3.33333333 0 0 Z " fill="#C6CDD4" transform="translate(264,325)"/>
<path d="M0 0 C1.65 0 3.3 0 5 0 C5 1.32 5 2.64 5 4 C5.2981424 5.34164079 5.62243192 6.67851173 6 8 C4 8 4 8 2.375 6.5 C1.92125 6.005 1.4675 5.51 1 5 C0.67 5.99 0.34 6.98 0 8 C0 5.36 0 2.72 0 0 Z " fill="#B38A79" transform="translate(322,329)"/>
<path d="M0 0 C3.9252025 3.70090521 6.94580156 7.54959656 10 12 C9.01 12.495 9.01 12.495 8 13 C8 12.34 8 11.68 8 11 C7.0409375 10.8453125 7.0409375 10.8453125 6.0625 10.6875 C5.381875 10.460625 4.70125 10.23375 4 10 C3.67 9.01 3.34 8.02 3 7 C2.484375 6.525625 1.96875 6.05125 1.4375 5.5625 C0 4 0 4 0 0 Z " fill="#E0BFB2" transform="translate(313,287)"/>
<path d="M0 0 C0.66 0.33 1.32 0.66 2 1 C1.57202798 6.70629354 -0.84345952 10.41078616 -4 15 C-4.33 13.68 -4.66 12.36 -5 11 C-4.34 10.67 -3.68 10.34 -3 10 C-2.6451046 8.00371336 -2.31421071 6.00309329 -2 4 C-0.9375 1.625 -0.9375 1.625 0 0 Z " fill="#E2C4B7" transform="translate(333,209)"/>
<path d="M0 0 C3.80635497 3.20760251 7.54563567 6.40746109 11 10 C9.02 10.33 7.04 10.66 5 11 C4.855625 10.401875 4.71125 9.80375 4.5625 9.1875 C4.1127561 7.43849596 3.57107659 5.71322977 3 4 C2.01 4 1.02 4 0 4 C0 2.68 0 1.36 0 0 Z " fill="#DFC4B8" transform="translate(326,303)"/>
<path d="M0 0 C1.32 0.66 2.64 1.32 4 2 C4 2.99 4 3.98 4 5 C2.68 5 1.36 5 0 5 C0 5.66 0 6.32 0 7 C-1.65 7 -3.3 7 -5 7 C-4 4 -4 4 -1 2 C-0.67 1.34 -0.34 0.68 0 0 Z " fill="#B84515" transform="translate(322,231)"/>
<path d="M0 0 C1 2 1 2 1 5 C2.32 5 3.64 5 5 5 C5.33 4.01 5.66 3.02 6 2 C4.68 2.33 3.36 2.66 2 3 C2 2.01 2 1.02 2 0 C3.65 0 5.3 0 7 0 C7.04254356 1.99954746 7.04080783 4.00041636 7 6 C6 7 6 7 3 7.125 C0 7 0 7 -1 6 C-1.125 3.5 -1.125 3.5 -1 1 C-0.67 0.67 -0.34 0.34 0 0 Z " fill="#92A2AA" transform="translate(202,192)"/>
<path d="M0 0 C4.50416844 3.67006318 6.76790201 8.74908096 9 14 C9 14.66 9 15.32 9 16 C8.34 16 7.68 16 7 16 C5.82845707 13.71070947 4.66261926 11.41881638 3.5 9.125 C3.16613281 8.47402344 2.83226562 7.82304687 2.48828125 7.15234375 C0 2.2265625 0 2.2265625 0 0 Z " fill="#A9532C" transform="translate(342,166)"/>
<path d="M0 0 C2.8125 0.0625 2.8125 0.0625 6 1 C7.4926041 3.27444434 8.14242011 5.37961699 9 8 C8.01 8 7.02 8 6 8 C4.39453125 6.25 4.39453125 6.25 2.8125 4 C2.28269531 3.2575 1.75289063 2.515 1.20703125 1.75 C0.80871094 1.1725 0.41039062 0.595 0 0 Z " fill="#AB532C" transform="translate(284,250)"/>
<path d="M0 0 C3.465 1.485 3.465 1.485 7 3 C7 3.33 7 3.66 7 4 C4.36 4.66 1.72 5.32 -1 6 C-1 5.34 -1 4.68 -1 4 C-1.66 4 -2.32 4 -3 4 C-3.33 5.32 -3.66 6.64 -4 8 C-4 6.35 -4 4.7 -4 3 C-2.68 2.67 -1.36 2.34 0 2 C0 1.34 0 0.68 0 0 Z " fill="#6196BD" transform="translate(276,248)"/>
<path d="M0 0 C2.97 0.495 2.97 0.495 6 1 C6 1.66 6 2.32 6 3 C9.3 3 12.6 3 16 3 C16 3.33 16 3.66 16 4 C10.06 4 4.12 4 -2 4 C-0.68 3.67 0.64 3.34 2 3 C2 2.34 2 1.68 2 1 C1.34 0.67 0.68 0.34 0 0 Z " fill="#A85533" transform="translate(296,239)"/>
<path d="M0 0 C0.66 0.33 1.32 0.66 2 1 C0.90344712 2.31886772 -0.20253423 3.62990057 -1.3125 4.9375 C-1.92738281 5.66839844 -2.54226562 6.39929688 -3.17578125 7.15234375 C-5 9 -5 9 -8 10 C-8.33 9.01 -8.66 8.02 -9 7 C-7.68 6.67 -6.36 6.34 -5 6 C-4.67 4.68 -4.34 3.36 -4 2 C-3.01 2.33 -2.02 2.66 -1 3 C-0.67 2.01 -0.34 1.02 0 0 Z " fill="#C5CCD3" transform="translate(253,320)"/>
<path d="M0 0 C0 1.32 0 2.64 0 4 C-1.98 4 -3.96 4 -6 4 C-6 2.68 -6 1.36 -6 0 C-3.50907189 -1.24546405 -2.58919267 -0.7767578 0 0 Z " fill="#C1CAD2" transform="translate(208,267)"/>
<path d="M0 0 C1.98 0 3.96 0 6 0 C0.65467807 3.56354796 -4.49939519 5.48754536 -11 5 C-6.86621405 2.2441427 -4.94796454 1.89243555 0 2 C0 1.34 0 0.68 0 0 Z " fill="#AC562F" transform="translate(323,237)"/>
<path d="M0 0 C1.32 0 2.64 0 4 0 C4 0.66 4 1.32 4 2 C6.31 2 8.62 2 11 2 C11 2.33 11 2.66 11 3 C8.69 3 6.38 3 4 3 C4 3.99 4 4.98 4 6 C3.34 6 2.68 6 2 6 C2 5.34 2 4.68 2 4 C1.34 4 0.68 4 0 4 C0 2.68 0 1.36 0 0 Z " fill="#ABB2B8" transform="translate(198,236)"/>
<path d="M0 0 C-0.66 0 -1.32 0 -2 0 C-2 1.32 -2 2.64 -2 4 C-1.34 4 -0.68 4 0 4 C-0.33 4.66 -0.66 5.32 -1 6 C-3.31 5.01 -5.62 4.02 -8 3 C-8 2.34 -8 1.68 -8 1 C-3.375 -1.125 -3.375 -1.125 0 0 Z " fill="#93A5B1" transform="translate(209,206)"/>
<path d="M0 0 C0.12375 1.051875 0.2475 2.10375 0.375 3.1875 C0.91140782 6.45958771 1.63880035 9.00536076 3 12 C2.34 12 1.68 12 1 12 C0.16151196 10.54462432 -0.67063934 9.08559627 -1.5 7.625 C-2.19609375 6.40683594 -2.19609375 6.40683594 -2.90625 5.1640625 C-4 3 -4 3 -4 1 C-2 0 -2 0 0 0 Z " fill="#E0BEAF" transform="translate(348,166)"/>
<path d="M0 0 C0 2.97 0 5.94 0 9 C-3.60654039 6.59563974 -3.85452932 5.05320393 -5 1 C-2 0 -2 0 0 0 Z " fill="#C49786" transform="translate(364,328)"/>
<path d="M0 0 C6.47556391 0.61090226 6.47556391 0.61090226 8.9375 2.4375 C10 4 10 4 10 6 C6.51329166 4.8905928 3.22515763 3.73662334 0 2 C0 1.34 0 0.68 0 0 Z " fill="#C3CED6" transform="translate(240,188)"/>
<path d="M0 0 C1.14926266 0.95421808 2.29430541 1.91352045 3.4375 2.875 C4.07558594 3.40867187 4.71367187 3.94234375 5.37109375 4.4921875 C7 6 7 6 8 8 C6.35 8 4.7 8 3 8 C3 7.01 3 6.02 3 5 C2.01 4.67 1.02 4.34 0 4 C0 2.68 0 1.36 0 0 Z " fill="#AB4E24" transform="translate(340,299)"/>
<path d="M0 0 C3.28788824 3.11016455 5.83735988 6.01618925 8 10 C7.01 10.33 6.02 10.66 5 11 C5 9.68 5 8.36 5 7 C3.35 6.67 1.7 6.34 0 6 C0 4.02 0 2.04 0 0 Z " fill="#DABAAF" transform="translate(294,262)"/>
<path d="M0 0 C6.875 1.875 6.875 1.875 8 3 C8.04063832 4.66617115 8.042721 6.33388095 8 8 C6.85073734 7.04578192 5.70569459 6.08647955 4.5625 5.125 C3.92441406 4.59132812 3.28632813 4.05765625 2.62890625 3.5078125 C1 2 1 2 0 0 Z " fill="#E1C1B6" transform="translate(336,159)"/>
<path d="M0 0 C0.268125 0.639375 0.53625 1.27875 0.8125 1.9375 C1.88667752 4.33131686 1.88667752 4.33131686 5 5 C5 5.66 5 6.32 5 7 C4.34 7 3.68 7 3 7 C2.67 7.99 2.34 8.98 2 10 C1.01 9.34 0.02 8.68 -1 8 C-0.67 5.36 -0.34 2.72 0 0 Z " fill="#DCC4BB" transform="translate(321,330)"/>
<path d="M0 0 C3.96 0 7.92 0 12 0 C11.67 0.66 11.34 1.32 11 2 C4.95724466 3.36817102 4.95724466 3.36817102 1.5625 2.0625 C1.046875 1.711875 0.53125 1.36125 0 1 C0 0.67 0 0.34 0 0 Z " fill="#B04A1F" transform="translate(332,308)"/>
<path d="M0 0 C1.98 1.65 3.96 3.3 6 5 C4.3125 5.6875 4.3125 5.6875 2 6 C-0.75 4.5625 -0.75 4.5625 -3 3 C-3.33 3.66 -3.66 4.32 -4 5 C-4.33 4.01 -4.66 3.02 -5 2 C-3.35 2 -1.7 2 0 2 C0 1.34 0 0.68 0 0 Z " fill="#B15023" transform="translate(293,244)"/>
<path d="M0 0 C2.95808458 1.37339641 5.64139564 2.72563151 8 5 C8.25 7.6875 8.25 7.6875 8 10 C4.71211176 6.88983545 2.16264012 3.98381075 0 0 Z " fill="#6B97AF" transform="translate(251,206)"/>
<path d="M0 0 C0 0.99 0 1.98 0 3 C-1.98 3 -3.96 3 -6 3 C-6 2.01 -6 1.02 -6 0 C-3.50907189 -1.24546405 -2.58919267 -0.7767578 0 0 Z " fill="#5B92AF" transform="translate(230,342)"/>
<path d="M0 0 C1.65 0 3.3 0 5 0 C5 1.32 5 2.64 5 4 C3.02 4 1.04 4 -1 4 C-0.67 2.68 -0.34 1.36 0 0 Z " fill="#D7C4BA" transform="translate(305,146)"/>
<path d="M0 0 C0.99 0 1.98 0 3 0 C3.1875 2.875 3.1875 2.875 3 6 C2.01 6.66 1.02 7.32 0 8 C0 5.36 0 2.72 0 0 Z " fill="#C29E96" transform="translate(370,329)"/>
<path d="M0 0 C1.66611905 -0.042721 3.33382885 -0.04063832 5 0 C6 1 6 1 6.0625 4.5625 C6.041875 5.696875 6.02125 6.83125 6 8 C5.34 7.67 4.68 7.34 4 7 C4 6.34 4 5.68 4 5 C3.34 5 2.68 5 2 5 C2 4.34 2 3.68 2 3 C2.66 2.67 3.32 2.34 4 2 C2.68 1.34 1.36 0.68 0 0 Z " fill="#AC887E" transform="translate(391,329)"/>
<path d="M0 0 C1.98 0.66 3.96 1.32 6 2 C6 3.98 6 5.96 6 8 C1.125 3.375 1.125 3.375 0 0 Z " fill="#AD522A" transform="translate(304,274)"/>
<path d="M0 0 C0.66 0.33 1.32 0.66 2 1 C2 3.31 2 5.62 2 8 C1.01 8 0.02 8 -1 8 C-1.125 2.25 -1.125 2.25 0 0 Z " fill="#CFD0D4" transform="translate(199,264)"/>
<path d="M0 0 C0.99 0.33 1.98 0.66 3 1 C-0.465 3.97 -0.465 3.97 -4 7 C-4 5.35 -4 3.7 -4 2 C-3.34 1.67 -2.68 1.34 -2 1 C-1.34 1.33 -0.68 1.66 0 2 C0 1.34 0 0.68 0 0 Z " fill="#AD5731" transform="translate(340,226)"/>
<path d="M0 0 C1.32 1.32 2.64 2.64 4 4 C3.34 5.32 2.68 6.64 2 8 C0.4375 6.8125 0.4375 6.8125 -1 5 C-0.6875 2.3125 -0.6875 2.3125 0 0 Z " fill="#E3C6BB" transform="translate(359,332)"/>
<path d="M0 0 C-1 1.5 -1 1.5 -3 3 C-5.71846235 3.27345479 -8.25677199 3.13491285 -11 3 C-3.71428571 -1.85714286 -3.71428571 -1.85714286 0 0 Z " fill="#AA532D" transform="translate(315,236)"/>
<path d="M0 0 C2.475 0.99 2.475 0.99 5 2 C4.01 2.33 3.02 2.66 2 3 C2 4.98 2 6.96 2 9 C1.34 8.67 0.68 8.34 0 8 C0 5.36 0 2.72 0 0 Z " fill="#7E8792" transform="translate(239,189)"/>
<path d="M0 0 C0.99 0 1.98 0 3 0 C3 0.66 3 1.32 3 2 C3.66 2 4.32 2 5 2 C5 2.66 5 3.32 5 4 C2.36 4 -0.28 4 -3 4 C-1.6875 2 -1.6875 2 0 0 Z " fill="#6A9AB4" transform="translate(213,344)"/>
<path d="M0 0 C0.66 0 1.32 0 2 0 C2 2.31 2 4.62 2 7 C0.35 5.35 -1.3 3.7 -3 2 C-2.01 2 -1.02 2 0 2 C0 1.34 0 0.68 0 0 Z " fill="#DFC1B7" transform="translate(339,292)"/>
<path d="M0 0 C3 3 3 3 3.07421875 5.91796875 C2.94660156 6.99691406 2.81898438 8.07585937 2.6875 9.1875 C2.56761719 10.27417969 2.44773437 11.36085938 2.32421875 12.48046875 C2.21722656 13.31191406 2.11023438 14.14335937 2 15 C1.67 15 1.34 15 1 15 C0.67 10.05 0.34 5.1 0 0 Z " fill="#728FA3" transform="translate(285,252)"/>
<path d="M0 0 C0.33 0 0.66 0 1 0 C1.33 2.31 1.66 4.62 2 7 C0.02 7.33 -1.96 7.66 -4 8 C-4.33 7.34 -4.66 6.68 -5 6 C-3.68 6 -2.36 6 -1 6 C-0.67 4.02 -0.34 2.04 0 0 Z " fill="#DCC7BF" transform="translate(340,331)"/>
<path d="M0 0 C0.6875 1.625 0.6875 1.625 1 4 C-0.4375 7.25 -0.4375 7.25 -2 10 C-2.33 10 -2.66 10 -3 10 C-3 8.35 -3 6.7 -3 5 C-2.34 5 -1.68 5 -1 5 C-0.67 3.35 -0.34 1.7 0 0 Z " fill="#C5CDD8" transform="translate(268,292)"/>
<path d="M0 0 C2.46800047 1.15173355 4.04783565 2.04783565 6 4 C5.625 6.125 5.625 6.125 5 8 C4.16382818 6.8562364 3.33113541 5.70992861 2.5 4.5625 C2.0359375 3.92441406 1.571875 3.28632813 1.09375 2.62890625 C0 1 0 1 0 0 Z " fill="#AA5433" transform="translate(310,282)"/>
<path d="M0 0 C2.31 0 4.62 0 7 0 C7 0.66 7 1.32 7 2 C4.69 2.33 2.38 2.66 0 3 C0 2.01 0 1.02 0 0 Z " fill="#B3BBC6" transform="translate(201,264)"/>
<path d="M0 0 C2.64 0 5.28 0 8 0 C8 0.66 8 1.32 8 2 C5.69 2.33 3.38 2.66 1 3 C0.67 2.01 0.34 1.02 0 0 Z " fill="#A8B0B9" transform="translate(201,258)"/>
<path d="M0 0 C0.33 0.66 0.66 1.32 1 2 C2.97888961 2.72693904 4.97954558 3.39816251 7 4 C7 4.33 7 4.66 7 5 C4.69 5 2.38 5 0 5 C0 3.35 0 1.7 0 0 Z " fill="#CFD1D6" transform="translate(202,233)"/>
<path d="M0 0 C2.97 1.98 2.97 1.98 6 4 C5.34 4.66 4.68 5.32 4 6 C1.525 5.01 1.525 5.01 -1 4 C-0.67 2.68 -0.34 1.36 0 0 Z " fill="#DFBDAF" transform="translate(320,161)"/>
</svg>
